<?xml version="1.0" encoding="UTF-8" standalone="no"?><svg xmlns="http://www.w3.org/2000/svg" xmlns:xlink="http://www.w3.org/1999/xlink" contentStyleType="text/css" height="267px" preserveAspectRatio="none" style="width:399px;height:267px;background:#FFFFFF;" version="1.1" viewBox="0 0 399 267" width="399px" zoomAndPan="magnify"><defs/><g><ellipse cx="165.75" cy="20" fill="#222222" rx="10" ry="10" style="stroke:#222222;stroke-width:1.0;"/><polygon fill="#F1F1F1" points="120.25,50,211.25,50,223.25,62,211.25,74,120.25,74,108.25,62,120.25,50" style="stroke:#181818;stroke-width:0.5;"/><text fill="#000000" font-family="sans-serif" font-size="11" lengthAdjust="spacing" textLength="91" x="120.25" y="66.268">Alguna condición</text><text fill="#000000" font-family="sans-serif" font-size="11" lengthAdjust="spacing" textLength="10" x="98.25" y="58.777">SÍ</text><text fill="#000000" font-family="sans-serif" font-size="11" lengthAdjust="spacing" textLength="14" x="223.25" y="58.777">no</text><rect fill="#F1F1F1" height="36.3441" rx="12.5" ry="12.5" style="stroke:#181818;stroke-width:0.5;" width="106" x="11" y="84"/><text fill="#000000" font-family="sans-serif" font-size="12" lengthAdjust="spacing" textLength="86" x="21" y="106.8281">Instrucción 001</text><polygon fill="#F1F1F1" points="222,84,313,84,325,96,313,108,222,108,210,96,222,84" style="stroke:#181818;stroke-width:0.5;"/><text fill="#000000" font-family="sans-serif" font-size="11" lengthAdjust="spacing" textLength="91" x="222" y="100.268">Alguna condición</text><text fill="#000000" font-family="sans-serif" font-size="11" lengthAdjust="spacing" textLength="10" x="200" y="92.777">SÍ</text><text fill="#000000" font-family="sans-serif" font-size="11" lengthAdjust="spacing" textLength="14" x="325" y="92.777">no</text><rect fill="#F1F1F1" height="36.3441" rx="12.5" ry="12.5" style="stroke:#181818;stroke-width:0.5;" width="106" x="147" y="118"/><text fill="#000000" font-family="sans-serif" font-size="12" lengthAdjust="spacing" textLength="86" x="157" y="140.8281">Instrucción 002</text><rect fill="#F1F1F1" height="36.3441" rx="12.5" ry="12.5" style="stroke:#181818;stroke-width:0.5;" width="106" x="282" y="118"/><text fill="#000000" font-family="sans-serif" font-size="12" lengthAdjust="spacing" textLength="86" x="292" y="140.8281">Instrucción 003</text><polygon fill="#F1F1F1" points="267.5,160.3441,279.5,172.3441,267.5,184.3441,255.5,172.3441,267.5,160.3441" style="stroke:#181818;stroke-width:0.5;"/><polygon fill="#F1F1F1" points="165.75,190.3441,177.75,202.3441,165.75,214.3441,153.75,202.3441,165.75,190.3441" style="stroke:#181818;stroke-width:0.5;"/><ellipse cx="165.75" cy="245.3441" fill="none" rx="11" ry="11" style="stroke:#222222;stroke-width:1.0;"/><ellipse cx="165.75" cy="245.3441" fill="#222222" rx="6" ry="6" style="stroke:#111111;stroke-width:1.0;"/><line style="stroke:#181818;stroke-width:1.0;" x1="210" x2="200" y1="96" y2="96"/><line style="stroke:#181818;stroke-width:1.0;" x1="200" x2="200" y1="96" y2="118"/><polygon fill="#181818" points="196,108,200,118,204,108,200,112" style="stroke:#181818;stroke-width:1.0;"/><line style="stroke:#181818;stroke-width:1.0;" x1="325" x2="335" y1="96" y2="96"/><line style="stroke:#181818;stroke-width:1.0;" x1="335" x2="335" y1="96" y2="118"/><polygon fill="#181818" points="331,108,335,118,339,108,335,112" style="stroke:#181818;stroke-width:1.0;"/><line style="stroke:#181818;stroke-width:1.0;" x1="200" x2="200" y1="154.3441" y2="172.3441"/><line style="stroke:#181818;stroke-width:1.0;" x1="200" x2="255.5" y1="172.3441" y2="172.3441"/><polygon fill="#181818" points="245.5,168.3441,255.5,172.3441,245.5,176.3441,249.5,172.3441" style="stroke:#181818;stroke-width:1.0;"/><line style="stroke:#181818;stroke-width:1.0;" x1="335" x2="335" y1="154.3441" y2="172.3441"/><line style="stroke:#181818;stroke-width:1.0;" x1="335" x2="279.5" y1="172.3441" y2="172.3441"/><polygon fill="#181818" points="289.5,168.3441,279.5,172.3441,289.5,176.3441,285.5,172.3441" style="stroke:#181818;stroke-width:1.0;"/><line style="stroke:#181818;stroke-width:1.0;" x1="108.25" x2="64" y1="62" y2="62"/><line style="stroke:#181818;stroke-width:1.0;" x1="64" x2="64" y1="62" y2="84"/><polygon fill="#181818" points="60,74,64,84,68,74,64,78" style="stroke:#181818;stroke-width:1.0;"/><line style="stroke:#181818;stroke-width:1.0;" x1="223.25" x2="267.5" y1="62" y2="62"/><line style="stroke:#181818;stroke-width:1.0;" x1="267.5" x2="267.5" y1="62" y2="84"/><polygon fill="#181818" points="263.5,74,267.5,84,271.5,74,267.5,78" style="stroke:#181818;stroke-width:1.0;"/><line style="stroke:#181818;stroke-width:1.0;" x1="64" x2="64" y1="120.3441" y2="202.3441"/><line style="stroke:#181818;stroke-width:1.0;" x1="64" x2="153.75" y1="202.3441" y2="202.3441"/><polygon fill="#181818" points="143.75,198.3441,153.75,202.3441,143.75,206.3441,147.75,202.3441" style="stroke:#181818;stroke-width:1.0;"/><line style="stroke:#181818;stroke-width:1.0;" x1="267.5" x2="267.5" y1="184.3441" y2="202.3441"/><line style="stroke:#181818;stroke-width:1.0;" x1="267.5" x2="177.75" y1="202.3441" y2="202.3441"/><polygon fill="#181818" points="187.75,198.3441,177.75,202.3441,187.75,206.3441,183.75,202.3441" style="stroke:#181818;stroke-width:1.0;"/><line style="stroke:#181818;stroke-width:1.0;" x1="165.75" x2="165.75" y1="30" y2="50"/><polygon fill="#181818" points="161.75,40,165.75,50,169.75,40,165.75,44" style="stroke:#181818;stroke-width:1.0;"/><line style="stroke:#181818;stroke-width:1.0;" x1="165.75" x2="165.75" y1="214.3441" y2="234.3441"/><polygon fill="#181818" points="161.75,224.3441,165.75,234.3441,169.75,224.3441,165.75,228.3441" style="stroke:#181818;stroke-width:1.0;"/><!--MD5=[c22605d9f17743f1476638a7760c4209]
@startuml
start

if (Alguna condición) then (SÍ)
  :Instrucción 001;
else (no)
  if (Alguna condición) then (SÍ)
  :Instrucción 002;
else (no)
  :Instrucción 003;
endif
endif

stop
@enduml

PlantUML version 1.2022.7(Mon Aug 22 19:01:30 CEST 2022)
(GPL source distribution)
Java Runtime: OpenJDK Runtime Environment
JVM: OpenJDK 64-Bit Server VM
Default Encoding: UTF-8
Language: es
Country: ES
--></g></svg>