<?xml version="1.0" encoding="UTF-8" standalone="no"?><svg xmlns="http://www.w3.org/2000/svg" xmlns:xlink="http://www.w3.org/1999/xlink" contentStyleType="text/css" height="428px" preserveAspectRatio="none" style="width:263px;height:428px;background:#FFFFFF;" version="1.1" viewBox="0 0 263 428" width="263px" zoomAndPan="magnify"><defs/><g><ellipse cx="131.5" cy="20" fill="#222222" rx="10" ry="10" style="stroke:#222222;stroke-width:1.0;"/><rect fill="#F1F1F1" height="36.3441" rx="12.5" ry="12.5" style="stroke:#181818;stroke-width:0.5;" width="106" x="78.5" y="50"/><text fill="#000000" font-family="sans-serif" font-size="12" lengthAdjust="spacing" textLength="86" x="88.5" y="72.8281">Instrucción 001</text><rect fill="#F1F1F1" height="36.3441" rx="12.5" ry="12.5" style="stroke:#181818;stroke-width:0.5;" width="106" x="78.5" y="106.3441"/><text fill="#000000" font-family="sans-serif" font-size="12" lengthAdjust="spacing" textLength="86" x="88.5" y="129.1722">Instrucción 002</text><rect fill="#F1F1F1" height="36.3441" rx="12.5" ry="12.5" style="stroke:#181818;stroke-width:0.5;" width="106" x="78.5" y="162.6882"/><text fill="#000000" font-family="sans-serif" font-size="12" lengthAdjust="spacing" textLength="86" x="88.5" y="185.5163">Instrucción 003</text><polygon fill="#F1F1F1" points="86,219.0323,177,219.0323,189,231.0323,177,243.0323,86,243.0323,74,231.0323,86,219.0323" style="stroke:#181818;stroke-width:0.5;"/><text fill="#000000" font-family="sans-serif" font-size="11" lengthAdjust="spacing" textLength="91" x="86" y="235.3003">Alguna condición</text><text fill="#000000" font-family="sans-serif" font-size="11" lengthAdjust="spacing" textLength="10" x="64" y="227.8094">SÍ</text><text fill="#000000" font-family="sans-serif" font-size="11" lengthAdjust="spacing" textLength="14" x="189" y="227.8094">no</text><rect fill="#F1F1F1" height="36.3441" rx="12.5" ry="12.5" style="stroke:#181818;stroke-width:0.5;" width="106" x="11" y="253.0323"/><text fill="#000000" font-family="sans-serif" font-size="12" lengthAdjust="spacing" textLength="86" x="21" y="275.8604">Instrucción 004</text><rect fill="#F1F1F1" height="36.3441" rx="12.5" ry="12.5" style="stroke:#181818;stroke-width:0.5;" width="106" x="146" y="253.0323"/><text fill="#000000" font-family="sans-serif" font-size="12" lengthAdjust="spacing" textLength="86" x="156" y="275.8604">Instrucción 005</text><polygon fill="#F1F1F1" points="131.5,295.3765,143.5,307.3765,131.5,319.3765,119.5,307.3765,131.5,295.3765" style="stroke:#181818;stroke-width:0.5;"/><rect fill="#F1F1F1" height="36.3441" rx="12.5" ry="12.5" style="stroke:#181818;stroke-width:0.5;" width="106" x="78.5" y="339.3765"/><text fill="#000000" font-family="sans-serif" font-size="12" lengthAdjust="spacing" textLength="86" x="88.5" y="362.2045">Instrucción 006</text><ellipse cx="131.5" cy="406.7206" fill="none" rx="11" ry="11" style="stroke:#222222;stroke-width:1.0;"/><ellipse cx="131.5" cy="406.7206" fill="#222222" rx="6" ry="6" style="stroke:#111111;stroke-width:1.0;"/><line style="stroke:#181818;stroke-width:1.0;" x1="131.5" x2="131.5" y1="30" y2="50"/><polygon fill="#181818" points="127.5,40,131.5,50,135.5,40,131.5,44" style="stroke:#181818;stroke-width:1.0;"/><line style="stroke:#181818;stroke-width:1.0;" x1="131.5" x2="131.5" y1="86.3441" y2="106.3441"/><polygon fill="#181818" points="127.5,96.3441,131.5,106.3441,135.5,96.3441,131.5,100.3441" style="stroke:#181818;stroke-width:1.0;"/><line style="stroke:#181818;stroke-width:1.0;" x1="131.5" x2="131.5" y1="142.6882" y2="162.6882"/><polygon fill="#181818" points="127.5,152.6882,131.5,162.6882,135.5,152.6882,131.5,156.6882" style="stroke:#181818;stroke-width:1.0;"/><line style="stroke:#181818;stroke-width:1.0;" x1="74" x2="64" y1="231.0323" y2="231.0323"/><line style="stroke:#181818;stroke-width:1.0;" x1="64" x2="64" y1="231.0323" y2="253.0323"/><polygon fill="#181818" points="60,243.0323,64,253.0323,68,243.0323,64,247.0323" style="stroke:#181818;stroke-width:1.0;"/><line style="stroke:#181818;stroke-width:1.0;" x1="189" x2="199" y1="231.0323" y2="231.0323"/><line style="stroke:#181818;stroke-width:1.0;" x1="199" x2="199" y1="231.0323" y2="253.0323"/><polygon fill="#181818" points="195,243.0323,199,253.0323,203,243.0323,199,247.0323" style="stroke:#181818;stroke-width:1.0;"/><line style="stroke:#181818;stroke-width:1.0;" x1="64" x2="64" y1="289.3765" y2="307.3765"/><line style="stroke:#181818;stroke-width:1.0;" x1="64" x2="119.5" y1="307.3765" y2="307.3765"/><polygon fill="#181818" points="109.5,303.3765,119.5,307.3765,109.5,311.3765,113.5,307.3765" style="stroke:#181818;stroke-width:1.0;"/><line style="stroke:#181818;stroke-width:1.0;" x1="199" x2="199" y1="289.3765" y2="307.3765"/><line style="stroke:#181818;stroke-width:1.0;" x1="199" x2="143.5" y1="307.3765" y2="307.3765"/><polygon fill="#181818" points="153.5,303.3765,143.5,307.3765,153.5,311.3765,149.5,307.3765" style="stroke:#181818;stroke-width:1.0;"/><line style="stroke:#181818;stroke-width:1.0;" x1="131.5" x2="131.5" y1="199.0323" y2="219.0323"/><polygon fill="#181818" points="127.5,209.0323,131.5,219.0323,135.5,209.0323,131.5,213.0323" style="stroke:#181818;stroke-width:1.0;"/><line style="stroke:#181818;stroke-width:1.0;" x1="131.5" x2="131.5" y1="319.3765" y2="339.3765"/><polygon fill="#181818" points="127.5,329.3765,131.5,339.3765,135.5,329.3765,131.5,333.3765" style="stroke:#181818;stroke-width:1.0;"/><line style="stroke:#181818;stroke-width:1.0;" x1="131.5" x2="131.5" y1="375.7206" y2="395.7206"/><polygon fill="#181818" points="127.5,385.7206,131.5,395.7206,135.5,385.7206,131.5,389.7206" style="stroke:#181818;stroke-width:1.0;"/><!--MD5=[1931ff2be32bb8188cd4609c01c78932]
@startuml
start

:Instrucción 001; 
:Instrucción 002; 
:Instrucción 003; 

if (Alguna condición) then (SÍ)
  :Instrucción 004;
else (no)
  :Instrucción 005;
endif

:Instrucción 006;

stop
@enduml

PlantUML version 1.2022.7(Mon Aug 22 19:01:30 CEST 2022)
(GPL source distribution)
Java Runtime: OpenJDK Runtime Environment
JVM: OpenJDK 64-Bit Server VM
Default Encoding: UTF-8
Language: es
Country: ES
--></g></svg>