<?xml version="1.0" encoding="UTF-8" standalone="no"?><svg xmlns="http://www.w3.org/2000/svg" xmlns:xlink="http://www.w3.org/1999/xlink" contentStyleType="text/css" height="458px" preserveAspectRatio="none" style="width:173px;height:458px;background:#FFFFFF;" version="1.1" viewBox="0 0 173 458" width="173px" zoomAndPan="magnify"><defs/><g><ellipse cx="77.5" cy="20" fill="#222222" rx="10" ry="10" style="stroke:#222222;stroke-width:1.0;"/><rect fill="#F1F1F1" height="36.3441" rx="12.5" ry="12.5" style="stroke:#181818;stroke-width:0.5;" width="106" x="24.5" y="50"/><text fill="#000000" font-family="sans-serif" font-size="12" lengthAdjust="spacing" textLength="86" x="34.5" y="72.8281">Instrucción 001</text><rect fill="#F1F1F1" height="36.3441" rx="12.5" ry="12.5" style="stroke:#181818;stroke-width:0.5;" width="106" x="24.5" y="106.3441"/><text fill="#000000" font-family="sans-serif" font-size="12" lengthAdjust="spacing" textLength="86" x="34.5" y="129.1722">Instrucción 002</text><rect fill="#F1F1F1" height="36.3441" rx="12.5" ry="12.5" style="stroke:#181818;stroke-width:0.5;" width="106" x="24.5" y="162.6882"/><text fill="#000000" font-family="sans-serif" font-size="12" lengthAdjust="spacing" textLength="86" x="34.5" y="185.5163">Instrucción 003</text><rect fill="#F1F1F1" height="36.3441" rx="12.5" ry="12.5" style="stroke:#181818;stroke-width:0.5;" width="106" x="24.5" y="268.5233"/><text fill="#000000" font-family="sans-serif" font-size="12" lengthAdjust="spacing" textLength="86" x="34.5" y="291.3514">Instrucción 004</text><polygon fill="#F1F1F1" points="32,219.0323,123,219.0323,135,231.0323,123,243.0323,32,243.0323,20,231.0323,32,219.0323" style="stroke:#181818;stroke-width:0.5;"/><text fill="#000000" font-family="sans-serif" font-size="11" lengthAdjust="spacing" textLength="10" x="81.5" y="254.7913">SÍ</text><text fill="#000000" font-family="sans-serif" font-size="11" lengthAdjust="spacing" textLength="91" x="32" y="235.3003">Alguna condición</text><polygon fill="#F1F1F1" points="77.5,324.8674,89.5,336.8674,77.5,348.8674,65.5,336.8674,77.5,324.8674" style="stroke:#181818;stroke-width:0.5;"/><rect fill="#F1F1F1" height="36.3441" rx="12.5" ry="12.5" style="stroke:#181818;stroke-width:0.5;" width="106" x="24.5" y="368.8674"/><text fill="#000000" font-family="sans-serif" font-size="12" lengthAdjust="spacing" textLength="86" x="34.5" y="391.6955">Instrucción 006</text><ellipse cx="77.5" cy="436.2115" fill="none" rx="11" ry="11" style="stroke:#222222;stroke-width:1.0;"/><ellipse cx="77.5" cy="436.2115" fill="#222222" rx="6" ry="6" style="stroke:#111111;stroke-width:1.0;"/><line style="stroke:#181818;stroke-width:1.0;" x1="77.5" x2="77.5" y1="30" y2="50"/><polygon fill="#181818" points="73.5,40,77.5,50,81.5,40,77.5,44" style="stroke:#181818;stroke-width:1.0;"/><line style="stroke:#181818;stroke-width:1.0;" x1="77.5" x2="77.5" y1="86.3441" y2="106.3441"/><polygon fill="#181818" points="73.5,96.3441,77.5,106.3441,81.5,96.3441,77.5,100.3441" style="stroke:#181818;stroke-width:1.0;"/><line style="stroke:#181818;stroke-width:1.0;" x1="77.5" x2="77.5" y1="142.6882" y2="162.6882"/><polygon fill="#181818" points="73.5,152.6882,77.5,162.6882,81.5,152.6882,77.5,156.6882" style="stroke:#181818;stroke-width:1.0;"/><line style="stroke:#181818;stroke-width:1.0;" x1="77.5" x2="77.5" y1="243.0323" y2="268.5233"/><polygon fill="#181818" points="73.5,258.5233,77.5,268.5233,81.5,258.5233,77.5,262.5233" style="stroke:#181818;stroke-width:1.0;"/><line style="stroke:#181818;stroke-width:1.0;" x1="135" x2="147" y1="231.0323" y2="231.0323"/><polygon fill="#181818" points="143,276.6953,147,286.6953,151,276.6953,147,280.6953" style="stroke:#181818;stroke-width:1.0;"/><line style="stroke:#181818;stroke-width:1.0;" x1="147" x2="147" y1="231.0323" y2="336.8674"/><line style="stroke:#181818;stroke-width:1.0;" x1="147" x2="89.5" y1="336.8674" y2="336.8674"/><polygon fill="#181818" points="99.5,332.8674,89.5,336.8674,99.5,340.8674,95.5,336.8674" style="stroke:#181818;stroke-width:1.0;"/><line style="stroke:#181818;stroke-width:1.0;" x1="77.5" x2="77.5" y1="304.8674" y2="324.8674"/><polygon fill="#181818" points="73.5,314.8674,77.5,324.8674,81.5,314.8674,77.5,318.8674" style="stroke:#181818;stroke-width:1.0;"/><line style="stroke:#181818;stroke-width:1.0;" x1="77.5" x2="77.5" y1="199.0323" y2="219.0323"/><polygon fill="#181818" points="73.5,209.0323,77.5,219.0323,81.5,209.0323,77.5,213.0323" style="stroke:#181818;stroke-width:1.0;"/><line style="stroke:#181818;stroke-width:1.0;" x1="77.5" x2="77.5" y1="348.8674" y2="368.8674"/><polygon fill="#181818" points="73.5,358.8674,77.5,368.8674,81.5,358.8674,77.5,362.8674" style="stroke:#181818;stroke-width:1.0;"/><line style="stroke:#181818;stroke-width:1.0;" x1="77.5" x2="77.5" y1="405.2115" y2="425.2115"/><polygon fill="#181818" points="73.5,415.2115,77.5,425.2115,81.5,415.2115,77.5,419.2115" style="stroke:#181818;stroke-width:1.0;"/><!--MD5=[057cda4fe4f7be2e5301f6c490956c65]
@startuml
start

:Instrucción 001; 
:Instrucción 002; 
:Instrucción 003; 

if (Alguna condición) then (SÍ)
  :Instrucción 004;
endif

:Instrucción 006;

stop
@enduml

PlantUML version 1.2022.7(Mon Aug 22 19:01:30 CEST 2022)
(GPL source distribution)
Java Runtime: OpenJDK Runtime Environment
JVM: OpenJDK 64-Bit Server VM
Default Encoding: UTF-8
Language: es
Country: ES
--></g></svg>