<?xml version="1.0" encoding="UTF-8" standalone="no"?><svg xmlns="http://www.w3.org/2000/svg" xmlns:xlink="http://www.w3.org/1999/xlink" contentStyleType="text/css" height="492px" preserveAspectRatio="none" style="width:399px;height:492px;background:#FFFFFF;" version="1.1" viewBox="0 0 399 492" width="399px" zoomAndPan="magnify"><defs/><g><ellipse cx="165.75" cy="20" fill="#222222" rx="10" ry="10" style="stroke:#222222;stroke-width:1.0;"/><rect fill="#F1F1F1" height="36.3441" rx="12.5" ry="12.5" style="stroke:#181818;stroke-width:0.5;" width="106" x="112.75" y="50"/><text fill="#000000" font-family="sans-serif" font-size="12" lengthAdjust="spacing" textLength="86" x="122.75" y="72.8281">Instrucción 001</text><rect fill="#F1F1F1" height="36.3441" rx="12.5" ry="12.5" style="stroke:#181818;stroke-width:0.5;" width="106" x="112.75" y="106.3441"/><text fill="#000000" font-family="sans-serif" font-size="12" lengthAdjust="spacing" textLength="86" x="122.75" y="129.1722">Instrucción 002</text><rect fill="#F1F1F1" height="36.3441" rx="12.5" ry="12.5" style="stroke:#181818;stroke-width:0.5;" width="106" x="112.75" y="162.6882"/><text fill="#000000" font-family="sans-serif" font-size="12" lengthAdjust="spacing" textLength="86" x="122.75" y="185.5163">Instrucción 003</text><polygon fill="#F1F1F1" points="120.25,219.0323,211.25,219.0323,223.25,231.0323,211.25,243.0323,120.25,243.0323,108.25,231.0323,120.25,219.0323" style="stroke:#181818;stroke-width:0.5;"/><text fill="#000000" font-family="sans-serif" font-size="11" lengthAdjust="spacing" textLength="91" x="120.25" y="235.3003">Alguna condición</text><text fill="#000000" font-family="sans-serif" font-size="11" lengthAdjust="spacing" textLength="10" x="98.25" y="227.8094">SÍ</text><text fill="#000000" font-family="sans-serif" font-size="11" lengthAdjust="spacing" textLength="14" x="223.25" y="227.8094">no</text><rect fill="#F1F1F1" height="36.3441" rx="12.5" ry="12.5" style="stroke:#181818;stroke-width:0.5;" width="106" x="11" y="253.0323"/><text fill="#000000" font-family="sans-serif" font-size="12" lengthAdjust="spacing" textLength="86" x="21" y="275.8604">Instrucción 004</text><polygon fill="#F1F1F1" points="222,253.0323,313,253.0323,325,265.0323,313,277.0323,222,277.0323,210,265.0323,222,253.0323" style="stroke:#181818;stroke-width:0.5;"/><text fill="#000000" font-family="sans-serif" font-size="11" lengthAdjust="spacing" textLength="91" x="222" y="269.3003">Alguna condición</text><text fill="#000000" font-family="sans-serif" font-size="11" lengthAdjust="spacing" textLength="10" x="200" y="261.8094">SÍ</text><text fill="#000000" font-family="sans-serif" font-size="11" lengthAdjust="spacing" textLength="14" x="325" y="261.8094">no</text><rect fill="#F1F1F1" height="36.3441" rx="12.5" ry="12.5" style="stroke:#181818;stroke-width:0.5;" width="106" x="147" y="287.0323"/><text fill="#000000" font-family="sans-serif" font-size="12" lengthAdjust="spacing" textLength="86" x="157" y="309.8604">Instrucción 004</text><rect fill="#F1F1F1" height="36.3441" rx="12.5" ry="12.5" style="stroke:#181818;stroke-width:0.5;" width="106" x="282" y="287.0323"/><text fill="#000000" font-family="sans-serif" font-size="12" lengthAdjust="spacing" textLength="86" x="292" y="309.8604">Instrucción 005</text><polygon fill="#F1F1F1" points="267.5,329.3765,279.5,341.3765,267.5,353.3765,255.5,341.3765,267.5,329.3765" style="stroke:#181818;stroke-width:0.5;"/><polygon fill="#F1F1F1" points="165.75,359.3765,177.75,371.3765,165.75,383.3765,153.75,371.3765,165.75,359.3765" style="stroke:#181818;stroke-width:0.5;"/><rect fill="#F1F1F1" height="36.3441" rx="12.5" ry="12.5" style="stroke:#181818;stroke-width:0.5;" width="106" x="112.75" y="403.3765"/><text fill="#000000" font-family="sans-serif" font-size="12" lengthAdjust="spacing" textLength="86" x="122.75" y="426.2045">Instrucción 006</text><ellipse cx="165.75" cy="470.7206" fill="none" rx="11" ry="11" style="stroke:#222222;stroke-width:1.0;"/><ellipse cx="165.75" cy="470.7206" fill="#222222" rx="6" ry="6" style="stroke:#111111;stroke-width:1.0;"/><line style="stroke:#181818;stroke-width:1.0;" x1="165.75" x2="165.75" y1="30" y2="50"/><polygon fill="#181818" points="161.75,40,165.75,50,169.75,40,165.75,44" style="stroke:#181818;stroke-width:1.0;"/><line style="stroke:#181818;stroke-width:1.0;" x1="165.75" x2="165.75" y1="86.3441" y2="106.3441"/><polygon fill="#181818" points="161.75,96.3441,165.75,106.3441,169.75,96.3441,165.75,100.3441" style="stroke:#181818;stroke-width:1.0;"/><line style="stroke:#181818;stroke-width:1.0;" x1="165.75" x2="165.75" y1="142.6882" y2="162.6882"/><polygon fill="#181818" points="161.75,152.6882,165.75,162.6882,169.75,152.6882,165.75,156.6882" style="stroke:#181818;stroke-width:1.0;"/><line style="stroke:#181818;stroke-width:1.0;" x1="210" x2="200" y1="265.0323" y2="265.0323"/><line style="stroke:#181818;stroke-width:1.0;" x1="200" x2="200" y1="265.0323" y2="287.0323"/><polygon fill="#181818" points="196,277.0323,200,287.0323,204,277.0323,200,281.0323" style="stroke:#181818;stroke-width:1.0;"/><line style="stroke:#181818;stroke-width:1.0;" x1="325" x2="335" y1="265.0323" y2="265.0323"/><line style="stroke:#181818;stroke-width:1.0;" x1="335" x2="335" y1="265.0323" y2="287.0323"/><polygon fill="#181818" points="331,277.0323,335,287.0323,339,277.0323,335,281.0323" style="stroke:#181818;stroke-width:1.0;"/><line style="stroke:#181818;stroke-width:1.0;" x1="200" x2="200" y1="323.3765" y2="341.3765"/><line style="stroke:#181818;stroke-width:1.0;" x1="200" x2="255.5" y1="341.3765" y2="341.3765"/><polygon fill="#181818" points="245.5,337.3765,255.5,341.3765,245.5,345.3765,249.5,341.3765" style="stroke:#181818;stroke-width:1.0;"/><line style="stroke:#181818;stroke-width:1.0;" x1="335" x2="335" y1="323.3765" y2="341.3765"/><line style="stroke:#181818;stroke-width:1.0;" x1="335" x2="279.5" y1="341.3765" y2="341.3765"/><polygon fill="#181818" points="289.5,337.3765,279.5,341.3765,289.5,345.3765,285.5,341.3765" style="stroke:#181818;stroke-width:1.0;"/><line style="stroke:#181818;stroke-width:1.0;" x1="108.25" x2="64" y1="231.0323" y2="231.0323"/><line style="stroke:#181818;stroke-width:1.0;" x1="64" x2="64" y1="231.0323" y2="253.0323"/><polygon fill="#181818" points="60,243.0323,64,253.0323,68,243.0323,64,247.0323" style="stroke:#181818;stroke-width:1.0;"/><line style="stroke:#181818;stroke-width:1.0;" x1="223.25" x2="267.5" y1="231.0323" y2="231.0323"/><line style="stroke:#181818;stroke-width:1.0;" x1="267.5" x2="267.5" y1="231.0323" y2="253.0323"/><polygon fill="#181818" points="263.5,243.0323,267.5,253.0323,271.5,243.0323,267.5,247.0323" style="stroke:#181818;stroke-width:1.0;"/><line style="stroke:#181818;stroke-width:1.0;" x1="64" x2="64" y1="289.3765" y2="371.3765"/><line style="stroke:#181818;stroke-width:1.0;" x1="64" x2="153.75" y1="371.3765" y2="371.3765"/><polygon fill="#181818" points="143.75,367.3765,153.75,371.3765,143.75,375.3765,147.75,371.3765" style="stroke:#181818;stroke-width:1.0;"/><line style="stroke:#181818;stroke-width:1.0;" x1="267.5" x2="267.5" y1="353.3765" y2="371.3765"/><line style="stroke:#181818;stroke-width:1.0;" x1="267.5" x2="177.75" y1="371.3765" y2="371.3765"/><polygon fill="#181818" points="187.75,367.3765,177.75,371.3765,187.75,375.3765,183.75,371.3765" style="stroke:#181818;stroke-width:1.0;"/><line style="stroke:#181818;stroke-width:1.0;" x1="165.75" x2="165.75" y1="199.0323" y2="219.0323"/><polygon fill="#181818" points="161.75,209.0323,165.75,219.0323,169.75,209.0323,165.75,213.0323" style="stroke:#181818;stroke-width:1.0;"/><line style="stroke:#181818;stroke-width:1.0;" x1="165.75" x2="165.75" y1="383.3765" y2="403.3765"/><polygon fill="#181818" points="161.75,393.3765,165.75,403.3765,169.75,393.3765,165.75,397.3765" style="stroke:#181818;stroke-width:1.0;"/><line style="stroke:#181818;stroke-width:1.0;" x1="165.75" x2="165.75" y1="439.7206" y2="459.7206"/><polygon fill="#181818" points="161.75,449.7206,165.75,459.7206,169.75,449.7206,165.75,453.7206" style="stroke:#181818;stroke-width:1.0;"/><!--MD5=[f71478964fcdb9cf7bae148fabfdb7da]
@startuml
start

:Instrucción 001; 
:Instrucción 002; 
:Instrucción 003; 

if (Alguna condición) then (SÍ)
  :Instrucción 004;
else (no)
  if (Alguna condición) then (SÍ)
  :Instrucción 004;
else (no)
  :Instrucción 005;
endif
endif

:Instrucción 006;

stop
@enduml

PlantUML version 1.2022.7(Mon Aug 22 19:01:30 CEST 2022)
(GPL source distribution)
Java Runtime: OpenJDK Runtime Environment
JVM: OpenJDK 64-Bit Server VM
Default Encoding: UTF-8
Language: es
Country: ES
--></g></svg>