<?xml version="1.0" encoding="UTF-8" standalone="no"?><svg xmlns="http://www.w3.org/2000/svg" xmlns:xlink="http://www.w3.org/1999/xlink" contentStyleType="text/css" height="203px" preserveAspectRatio="none" style="width:263px;height:203px;background:#FFFFFF;" version="1.1" viewBox="0 0 263 203" width="263px" zoomAndPan="magnify"><defs/><g><ellipse cx="131.5" cy="20" fill="#222222" rx="10" ry="10" style="stroke:#222222;stroke-width:1.0;"/><polygon fill="#F1F1F1" points="86,50,177,50,189,62,177,74,86,74,74,62,86,50" style="stroke:#181818;stroke-width:0.5;"/><text fill="#000000" font-family="sans-serif" font-size="11" lengthAdjust="spacing" textLength="91" x="86" y="66.268">Alguna condición</text><text fill="#000000" font-family="sans-serif" font-size="11" lengthAdjust="spacing" textLength="10" x="64" y="58.777">SÍ</text><text fill="#000000" font-family="sans-serif" font-size="11" lengthAdjust="spacing" textLength="14" x="189" y="58.777">no</text><rect fill="#F1F1F1" height="36.3441" rx="12.5" ry="12.5" style="stroke:#181818;stroke-width:0.5;" width="106" x="11" y="84"/><text fill="#000000" font-family="sans-serif" font-size="12" lengthAdjust="spacing" textLength="86" x="21" y="106.8281">Instrucción 001</text><rect fill="#F1F1F1" height="36.3441" rx="12.5" ry="12.5" style="stroke:#181818;stroke-width:0.5;" width="106" x="146" y="84"/><text fill="#000000" font-family="sans-serif" font-size="12" lengthAdjust="spacing" textLength="86" x="156" y="106.8281">Instrucción 002</text><polygon fill="#F1F1F1" points="131.5,126.3441,143.5,138.3441,131.5,150.3441,119.5,138.3441,131.5,126.3441" style="stroke:#181818;stroke-width:0.5;"/><ellipse cx="131.5" cy="181.3441" fill="none" rx="11" ry="11" style="stroke:#222222;stroke-width:1.0;"/><ellipse cx="131.5" cy="181.3441" fill="#222222" rx="6" ry="6" style="stroke:#111111;stroke-width:1.0;"/><line style="stroke:#181818;stroke-width:1.0;" x1="74" x2="64" y1="62" y2="62"/><line style="stroke:#181818;stroke-width:1.0;" x1="64" x2="64" y1="62" y2="84"/><polygon fill="#181818" points="60,74,64,84,68,74,64,78" style="stroke:#181818;stroke-width:1.0;"/><line style="stroke:#181818;stroke-width:1.0;" x1="189" x2="199" y1="62" y2="62"/><line style="stroke:#181818;stroke-width:1.0;" x1="199" x2="199" y1="62" y2="84"/><polygon fill="#181818" points="195,74,199,84,203,74,199,78" style="stroke:#181818;stroke-width:1.0;"/><line style="stroke:#181818;stroke-width:1.0;" x1="64" x2="64" y1="120.3441" y2="138.3441"/><line style="stroke:#181818;stroke-width:1.0;" x1="64" x2="119.5" y1="138.3441" y2="138.3441"/><polygon fill="#181818" points="109.5,134.3441,119.5,138.3441,109.5,142.3441,113.5,138.3441" style="stroke:#181818;stroke-width:1.0;"/><line style="stroke:#181818;stroke-width:1.0;" x1="199" x2="199" y1="120.3441" y2="138.3441"/><line style="stroke:#181818;stroke-width:1.0;" x1="199" x2="143.5" y1="138.3441" y2="138.3441"/><polygon fill="#181818" points="153.5,134.3441,143.5,138.3441,153.5,142.3441,149.5,138.3441" style="stroke:#181818;stroke-width:1.0;"/><line style="stroke:#181818;stroke-width:1.0;" x1="131.5" x2="131.5" y1="30" y2="50"/><polygon fill="#181818" points="127.5,40,131.5,50,135.5,40,131.5,44" style="stroke:#181818;stroke-width:1.0;"/><line style="stroke:#181818;stroke-width:1.0;" x1="131.5" x2="131.5" y1="150.3441" y2="170.3441"/><polygon fill="#181818" points="127.5,160.3441,131.5,170.3441,135.5,160.3441,131.5,164.3441" style="stroke:#181818;stroke-width:1.0;"/><!--MD5=[1b720102122cc967cb31441b2165cd1a]
@startuml
start

if (Alguna condición) then (SÍ)
  :Instrucción 001;
else (no)
  :Instrucción 002;
endif


stop
@enduml

PlantUML version 1.2022.7(Mon Aug 22 19:01:30 CEST 2022)
(GPL source distribution)
Java Runtime: OpenJDK Runtime Environment
JVM: OpenJDK 64-Bit Server VM
Default Encoding: UTF-8
Language: es
Country: ES
--></g></svg>