<?xml version="1.0" encoding="UTF-8" standalone="no"?><svg xmlns="http://www.w3.org/2000/svg" xmlns:xlink="http://www.w3.org/1999/xlink" contentStyleType="text/css" height="232px" preserveAspectRatio="none" style="width:173px;height:232px;background:#FFFFFF;" version="1.1" viewBox="0 0 173 232" width="173px" zoomAndPan="magnify"><defs/><g><ellipse cx="77.5" cy="20" fill="#222222" rx="10" ry="10" style="stroke:#222222;stroke-width:1.0;"/><rect fill="#F1F1F1" height="36.3441" rx="12.5" ry="12.5" style="stroke:#181818;stroke-width:0.5;" width="82" x="36.5" y="99.4909"/><text fill="#000000" font-family="sans-serif" font-size="12" lengthAdjust="spacing" textLength="62" x="46.5" y="122.319">Instrucción</text><polygon fill="#F1F1F1" points="32,50,123,50,135,62,123,74,32,74,20,62,32,50" style="stroke:#181818;stroke-width:0.5;"/><text fill="#000000" font-family="sans-serif" font-size="11" lengthAdjust="spacing" textLength="10" x="81.5" y="85.7589">SÍ</text><text fill="#000000" font-family="sans-serif" font-size="11" lengthAdjust="spacing" textLength="91" x="32" y="66.268">Alguna condición</text><polygon fill="#F1F1F1" points="77.5,155.8351,89.5,167.8351,77.5,179.8351,65.5,167.8351,77.5,155.8351" style="stroke:#181818;stroke-width:0.5;"/><ellipse cx="77.5" cy="210.8351" fill="none" rx="11" ry="11" style="stroke:#222222;stroke-width:1.0;"/><ellipse cx="77.5" cy="210.8351" fill="#222222" rx="6" ry="6" style="stroke:#111111;stroke-width:1.0;"/><line style="stroke:#181818;stroke-width:1.0;" x1="77.5" x2="77.5" y1="74" y2="99.4909"/><polygon fill="#181818" points="73.5,89.4909,77.5,99.4909,81.5,89.4909,77.5,93.4909" style="stroke:#181818;stroke-width:1.0;"/><line style="stroke:#181818;stroke-width:1.0;" x1="135" x2="147" y1="62" y2="62"/><polygon fill="#181818" points="143,107.663,147,117.663,151,107.663,147,111.663" style="stroke:#181818;stroke-width:1.0;"/><line style="stroke:#181818;stroke-width:1.0;" x1="147" x2="147" y1="62" y2="167.8351"/><line style="stroke:#181818;stroke-width:1.0;" x1="147" x2="89.5" y1="167.8351" y2="167.8351"/><polygon fill="#181818" points="99.5,163.8351,89.5,167.8351,99.5,171.8351,95.5,167.8351" style="stroke:#181818;stroke-width:1.0;"/><line style="stroke:#181818;stroke-width:1.0;" x1="77.5" x2="77.5" y1="135.8351" y2="155.8351"/><polygon fill="#181818" points="73.5,145.8351,77.5,155.8351,81.5,145.8351,77.5,149.8351" style="stroke:#181818;stroke-width:1.0;"/><line style="stroke:#181818;stroke-width:1.0;" x1="77.5" x2="77.5" y1="30" y2="50"/><polygon fill="#181818" points="73.5,40,77.5,50,81.5,40,77.5,44" style="stroke:#181818;stroke-width:1.0;"/><line style="stroke:#181818;stroke-width:1.0;" x1="77.5" x2="77.5" y1="179.8351" y2="199.8351"/><polygon fill="#181818" points="73.5,189.8351,77.5,199.8351,81.5,189.8351,77.5,193.8351" style="stroke:#181818;stroke-width:1.0;"/><!--MD5=[80d9a4e381899f70c163d2823b42179c]
@startuml
start

if (Alguna condición) then (SÍ)
  :Instrucción;
endif

stop
@enduml

PlantUML version 1.2022.7(Mon Aug 22 19:01:30 CEST 2022)
(GPL source distribution)
Java Runtime: OpenJDK Runtime Environment
JVM: OpenJDK 64-Bit Server VM
Default Encoding: UTF-8
Language: es
Country: ES
--></g></svg>