<?xml version="1.0" encoding="UTF-8" standalone="no"?><svg xmlns="http://www.w3.org/2000/svg" xmlns:xlink="http://www.w3.org/1999/xlink" contentStyleType="text/css" height="230px" preserveAspectRatio="none" style="width:177px;height:230px;background:#FFFFFF;" version="1.1" viewBox="0 0 177 230" width="177px" zoomAndPan="magnify"><defs/><g><!--MD5=[d90b76233c116de50efdb789cae7edae]
cluster Hardware--><g id="cluster_Hardware"><polygon fill="none" points="16,16,26,6,160,6,160,203,150,213,16,213,16,16" style="stroke:#181818;stroke-width:1.0;"/><line style="stroke:#181818;stroke-width:1.0;" x1="150" x2="160" y1="16" y2="6"/><line style="stroke:#181818;stroke-width:1.0;" x1="16" x2="150" y1="16" y2="16"/><line style="stroke:#181818;stroke-width:1.0;" x1="150" x2="150" y1="16" y2="213"/><text fill="#000000" font-family="sans-serif" font-size="14" font-weight="bold" lengthAdjust="spacing" textLength="68" x="50" y="33.9659">Hardware</text></g><!--MD5=[be8edd2b73108e8bda34d8a757aee1d0]
entity Interprete--><g id="elem_Interprete"><rect fill="#F1F1F1" height="49.0679" rx="2.5" ry="2.5" style="stroke:#181818;stroke-width:0.5;" width="109" x="33.5" y="49"/><rect fill="#F1F1F1" height="10" style="stroke:#181818;stroke-width:0.5;" width="15" x="122.5" y="54"/><rect fill="#F1F1F1" height="2" style="stroke:#181818;stroke-width:0.5;" width="4" x="120.5" y="56"/><rect fill="#F1F1F1" height="2" style="stroke:#181818;stroke-width:0.5;" width="4" x="120.5" y="60"/><text fill="#000000" font-family="sans-serif" font-size="14" lengthAdjust="spacing" textLength="69" x="48.5" y="83.9659">Interprete</text></g><!--MD5=[c825d8e2b8a6dc452b85edcebb5859ff]
entity Codigo--><g id="elem_Codigo"><rect fill="#F1F1F1" height="39.0679" rx="2.5" ry="2.5" style="stroke:#181818;stroke-width:0.5;" width="67" x="54.5" y="158"/><text fill="#000000" font-family="sans-serif" font-size="14" lengthAdjust="spacing" textLength="47" x="64.5" y="182.9659">Codigo</text></g><!--MD5=[825b552e77e118c8f8b11aadf7ae6e4e]
link Interprete to Codigo--><g id="link_Interprete_Codigo"><path d="M88,98.16 C88,114.44 88,136.01 88,152.39 " fill="none" id="Interprete-to-Codigo" style="stroke:#181818;stroke-width:1.0;stroke-dasharray:7.0,7.0;"/><polygon fill="#181818" points="88,157.73,92,148.73,88,152.73,84,148.73,88,157.73" style="stroke:#181818;stroke-width:1.0;"/></g><!--MD5=[1b8dae59de9b0ef92c7b59e7b5a26f6c]
@startuml
node Hardware {
component Interprete
rectangle Codigo
}

Interprete ..> Codigo
@enduml

PlantUML version 1.2022.7(Mon Aug 22 19:01:30 CEST 2022)
(GPL source distribution)
Java Runtime: OpenJDK Runtime Environment
JVM: OpenJDK 64-Bit Server VM
Default Encoding: UTF-8
Language: es
Country: ES
--></g></svg>