<?xml version="1.0" encoding="UTF-8" standalone="no"?><svg xmlns="http://www.w3.org/2000/svg" xmlns:xlink="http://www.w3.org/1999/xlink" contentStyleType="text/css" height="278px" preserveAspectRatio="none" style="width:101px;height:278px;background:#FFFFFF;" version="1.1" viewBox="0 0 101 278" width="101px" zoomAndPan="magnify"><defs/><g><!--MD5=[1e667c6ad6db7468aaf1f24fbbf1ec5d]
class Variable--><g id="elem_Variable"><rect codeLine="1" fill="#F1F1F1" height="48" id="Variable" rx="2.5" ry="2.5" style="stroke:#181818;stroke-width:0.5;" width="87" x="7" y="7"/><ellipse cx="22" cy="23" fill="#ADD1B2" rx="11" ry="11" style="stroke:#181818;stroke-width:1.0;"/><path d="M21.4688,29.9219 Q19.7188,29.9219 18.5781,29.1875 Q17.4531,28.4375 16.8906,27.0938 Q16.3438,25.7344 16.3438,23.9375 Q16.3438,21.9063 17,20.4531 Q17.6563,19 18.9375,18.2188 Q20.2188,17.4375 22.0938,17.4375 Q22.9844,17.4375 23.6563,17.625 Q24.3281,17.7969 25.0156,18.1406 L24.2031,20.1563 Q23.5781,19.8438 23.0313,19.7188 Q22.5,19.5938 22.0156,19.5938 Q20.8438,19.5938 20.1406,20.125 Q19.4375,20.6563 19.1406,21.6094 Q18.8438,22.5625 18.8438,23.8281 Q18.8438,25.8438 19.5625,26.8125 Q20.2813,27.7656 21.875,27.7656 Q22.4688,27.7656 23.0938,27.6094 Q23.7188,27.4531 24.5469,27.0781 L24.5469,29.2969 Q23.8125,29.6094 23.0156,29.7656 Q22.2344,29.9219 21.4688,29.9219 Z " fill="#000000"/><text fill="#000000" font-family="sans-serif" font-size="14" lengthAdjust="spacing" textLength="55" x="36" y="28.432">Variable</text><line style="stroke:#181818;stroke-width:0.5;" x1="8" x2="93" y1="39" y2="39"/><line style="stroke:#181818;stroke-width:0.5;" x1="8" x2="93" y1="47" y2="47"/></g><!--MD5=[d00d34812ce7333c7bcaef496f56baf0]
class Valor--><g id="elem_Valor"><rect codeLine="2" fill="#F1F1F1" height="48" id="Valor" rx="2.5" ry="2.5" style="stroke:#181818;stroke-width:0.5;" width="66" x="17.5" y="115"/><ellipse cx="32.5" cy="131" fill="#ADD1B2" rx="11" ry="11" style="stroke:#181818;stroke-width:1.0;"/><path d="M31.9688,137.9219 Q30.2188,137.9219 29.0781,137.1875 Q27.9531,136.4375 27.3906,135.0938 Q26.8438,133.7344 26.8438,131.9375 Q26.8438,129.9063 27.5,128.4531 Q28.1563,127 29.4375,126.2188 Q30.7188,125.4375 32.5938,125.4375 Q33.4844,125.4375 34.1563,125.625 Q34.8281,125.7969 35.5156,126.1406 L34.7031,128.1563 Q34.0781,127.8438 33.5313,127.7188 Q33,127.5938 32.5156,127.5938 Q31.3438,127.5938 30.6406,128.125 Q29.9375,128.6563 29.6406,129.6094 Q29.3438,130.5625 29.3438,131.8281 Q29.3438,133.8438 30.0625,134.8125 Q30.7813,135.7656 32.375,135.7656 Q32.9688,135.7656 33.5938,135.6094 Q34.2188,135.4531 35.0469,135.0781 L35.0469,137.2969 Q34.3125,137.6094 33.5156,137.7656 Q32.7344,137.9219 31.9688,137.9219 Z " fill="#000000"/><text fill="#000000" font-family="sans-serif" font-size="14" lengthAdjust="spacing" textLength="34" x="46.5" y="136.432">Valor</text><line style="stroke:#181818;stroke-width:0.5;" x1="18.5" x2="82.5" y1="147" y2="147"/><line style="stroke:#181818;stroke-width:0.5;" x1="18.5" x2="82.5" y1="155" y2="155"/></g><!--MD5=[eb4e2a40f0d210208f14ea4a2d93f8ee]
class Tipo--><g id="elem_Tipo"><rect codeLine="3" fill="#F1F1F1" height="48" id="Tipo" rx="2.5" ry="2.5" style="stroke:#181818;stroke-width:0.5;" width="61" x="20" y="223"/><ellipse cx="35" cy="239" fill="#ADD1B2" rx="11" ry="11" style="stroke:#181818;stroke-width:1.0;"/><path d="M34.4688,245.9219 Q32.7188,245.9219 31.5781,245.1875 Q30.4531,244.4375 29.8906,243.0938 Q29.3438,241.7344 29.3438,239.9375 Q29.3438,237.9063 30,236.4531 Q30.6563,235 31.9375,234.2188 Q33.2188,233.4375 35.0938,233.4375 Q35.9844,233.4375 36.6563,233.625 Q37.3281,233.7969 38.0156,234.1406 L37.2031,236.1563 Q36.5781,235.8438 36.0313,235.7188 Q35.5,235.5938 35.0156,235.5938 Q33.8438,235.5938 33.1406,236.125 Q32.4375,236.6563 32.1406,237.6094 Q31.8438,238.5625 31.8438,239.8281 Q31.8438,241.8438 32.5625,242.8125 Q33.2813,243.7656 34.875,243.7656 Q35.4688,243.7656 36.0938,243.6094 Q36.7188,243.4531 37.5469,243.0781 L37.5469,245.2969 Q36.8125,245.6094 36.0156,245.7656 Q35.2344,245.9219 34.4688,245.9219 Z " fill="#000000"/><text fill="#000000" font-family="sans-serif" font-size="14" lengthAdjust="spacing" textLength="29" x="49" y="244.432">Tipo</text><line style="stroke:#181818;stroke-width:0.5;" x1="21" x2="80" y1="255" y2="255"/><line style="stroke:#181818;stroke-width:0.5;" x1="21" x2="80" y1="263" y2="263"/></g><!--MD5=[646491e217cc33c3a5ad8e1b48073331]
link Variable to Valor--><g id="link_Variable_Valor"><path codeLine="5" d="M50.5,55 C50.5,71 50.5,92.45 50.5,109.53 " fill="none" id="Variable-to-Valor" style="stroke:#181818;stroke-width:1.0;"/><polygon fill="#181818" points="50.5,114.68,54.5,105.68,50.5,109.68,46.5,105.68,50.5,114.68" style="stroke:#181818;stroke-width:1.0;"/><text fill="#000000" font-family="sans-serif" font-size="13" lengthAdjust="spacing" textLength="7" x="42.6031" y="103.2573">1</text></g><!--MD5=[aee5e01fdfa65d498ee200a7ab844c13]
link Valor to Tipo--><g id="link_Valor_Tipo"><path codeLine="6" d="M50.5,163 C50.5,179 50.5,200.45 50.5,217.53 " fill="none" id="Valor-to-Tipo" style="stroke:#181818;stroke-width:1.0;"/><polygon fill="#181818" points="50.5,222.68,54.5,213.68,50.5,217.68,46.5,213.68,50.5,222.68" style="stroke:#181818;stroke-width:1.0;"/><text fill="#000000" font-family="sans-serif" font-size="13" lengthAdjust="spacing" textLength="7" x="42.6031" y="211.2573">1</text></g><!--MD5=[bb2eb88aa1a2e2b523fb1a499ace569d]
@startuml
class Variable
class Valor
class Tipo

Variable - -> "1" Valor
Valor - -> "1" Tipo
@enduml

PlantUML version 1.2022.7(Mon Aug 22 19:01:30 CEST 2022)
(GPL source distribution)
Java Runtime: OpenJDK Runtime Environment
JVM: OpenJDK 64-Bit Server VM
Default Encoding: UTF-8
Language: es
Country: ES
--></g></svg>