<?xml version="1.0" encoding="UTF-8" standalone="no"?><svg xmlns="http://www.w3.org/2000/svg" xmlns:xlink="http://www.w3.org/1999/xlink" contentStyleType="text/css" height="280px" preserveAspectRatio="none" style="width:167px;height:280px;background:#FFFFFF;" version="1.1" viewBox="0 0 167 280" width="167px" zoomAndPan="magnify"><defs/><g><!--MD5=[1e667c6ad6db7468aaf1f24fbbf1ec5d]
class Variable--><g id="elem_Variable"><rect codeLine="1" fill="#F1F1F1" height="48" id="Variable" rx="2.5" ry="2.5" style="stroke:#181818;stroke-width:0.5;" width="87" x="73.5" y="7"/><ellipse cx="88.5" cy="23" fill="#ADD1B2" rx="11" ry="11" style="stroke:#181818;stroke-width:1.0;"/><path d="M87.9688,29.9219 Q86.2188,29.9219 85.0781,29.1875 Q83.9531,28.4375 83.3906,27.0938 Q82.8438,25.7344 82.8438,23.9375 Q82.8438,21.9063 83.5,20.4531 Q84.1563,19 85.4375,18.2188 Q86.7188,17.4375 88.5938,17.4375 Q89.4844,17.4375 90.1563,17.625 Q90.8281,17.7969 91.5156,18.1406 L90.7031,20.1563 Q90.0781,19.8438 89.5313,19.7188 Q89,19.5938 88.5156,19.5938 Q87.3438,19.5938 86.6406,20.125 Q85.9375,20.6563 85.6406,21.6094 Q85.3438,22.5625 85.3438,23.8281 Q85.3438,25.8438 86.0625,26.8125 Q86.7813,27.7656 88.375,27.7656 Q88.9688,27.7656 89.5938,27.6094 Q90.2188,27.4531 91.0469,27.0781 L91.0469,29.2969 Q90.3125,29.6094 89.5156,29.7656 Q88.7344,29.9219 87.9688,29.9219 Z " fill="#000000"/><text fill="#000000" font-family="sans-serif" font-size="14" lengthAdjust="spacing" textLength="55" x="102.5" y="28.432">Variable</text><line style="stroke:#181818;stroke-width:0.5;" x1="74.5" x2="159.5" y1="39" y2="39"/><line style="stroke:#181818;stroke-width:0.5;" x1="74.5" x2="159.5" y1="47" y2="47"/></g><!--MD5=[d00d34812ce7333c7bcaef496f56baf0]
class Valor--><g id="elem_Valor"><rect codeLine="2" fill="#F1F1F1" height="48" id="Valor" rx="2.5" ry="2.5" style="stroke:#181818;stroke-width:0.5;" width="66" x="7" y="116"/><ellipse cx="22" cy="132" fill="#ADD1B2" rx="11" ry="11" style="stroke:#181818;stroke-width:1.0;"/><path d="M21.4688,138.9219 Q19.7188,138.9219 18.5781,138.1875 Q17.4531,137.4375 16.8906,136.0938 Q16.3438,134.7344 16.3438,132.9375 Q16.3438,130.9063 17,129.4531 Q17.6563,128 18.9375,127.2188 Q20.2188,126.4375 22.0938,126.4375 Q22.9844,126.4375 23.6563,126.625 Q24.3281,126.7969 25.0156,127.1406 L24.2031,129.1563 Q23.5781,128.8438 23.0313,128.7188 Q22.5,128.5938 22.0156,128.5938 Q20.8438,128.5938 20.1406,129.125 Q19.4375,129.6563 19.1406,130.6094 Q18.8438,131.5625 18.8438,132.8281 Q18.8438,134.8438 19.5625,135.8125 Q20.2813,136.7656 21.875,136.7656 Q22.4688,136.7656 23.0938,136.6094 Q23.7188,136.4531 24.5469,136.0781 L24.5469,138.2969 Q23.8125,138.6094 23.0156,138.7656 Q22.2344,138.9219 21.4688,138.9219 Z " fill="#000000"/><text fill="#000000" font-family="sans-serif" font-size="14" lengthAdjust="spacing" textLength="34" x="36" y="137.432">Valor</text><line style="stroke:#181818;stroke-width:0.5;" x1="8" x2="72" y1="148" y2="148"/><line style="stroke:#181818;stroke-width:0.5;" x1="8" x2="72" y1="156" y2="156"/></g><!--MD5=[eb4e2a40f0d210208f14ea4a2d93f8ee]
class Tipo--><g id="elem_Tipo"><rect codeLine="3" fill="#F1F1F1" height="48" id="Tipo" rx="2.5" ry="2.5" style="stroke:#181818;stroke-width:0.5;" width="61" x="60.5" y="225"/><ellipse cx="75.5" cy="241" fill="#ADD1B2" rx="11" ry="11" style="stroke:#181818;stroke-width:1.0;"/><path d="M74.9688,247.9219 Q73.2188,247.9219 72.0781,247.1875 Q70.9531,246.4375 70.3906,245.0938 Q69.8438,243.7344 69.8438,241.9375 Q69.8438,239.9063 70.5,238.4531 Q71.1563,237 72.4375,236.2188 Q73.7188,235.4375 75.5938,235.4375 Q76.4844,235.4375 77.1563,235.625 Q77.8281,235.7969 78.5156,236.1406 L77.7031,238.1563 Q77.0781,237.8438 76.5313,237.7188 Q76,237.5938 75.5156,237.5938 Q74.3438,237.5938 73.6406,238.125 Q72.9375,238.6563 72.6406,239.6094 Q72.3438,240.5625 72.3438,241.8281 Q72.3438,243.8438 73.0625,244.8125 Q73.7813,245.7656 75.375,245.7656 Q75.9688,245.7656 76.5938,245.6094 Q77.2188,245.4531 78.0469,245.0781 L78.0469,247.2969 Q77.3125,247.6094 76.5156,247.7656 Q75.7344,247.9219 74.9688,247.9219 Z " fill="#000000"/><text fill="#000000" font-family="sans-serif" font-size="14" lengthAdjust="spacing" textLength="29" x="89.5" y="246.432">Tipo</text><line style="stroke:#181818;stroke-width:0.5;" x1="61.5" x2="120.5" y1="257" y2="257"/><line style="stroke:#181818;stroke-width:0.5;" x1="61.5" x2="120.5" y1="265" y2="265"/></g><!--MD5=[646491e217cc33c3a5ad8e1b48073331]
link Variable to Valor--><g id="link_Variable_Valor"><path codeLine="5" d="M100.29,55.22 C88.39,71.76 72.33,94.07 59.79,111.51 " fill="none" id="Variable-to-Valor" style="stroke:#181818;stroke-width:1.0;"/><polygon fill="#181818" points="56.68,115.83,65.1793,110.8539,59.597,111.7691,58.6819,106.1867,56.68,115.83" style="stroke:#181818;stroke-width:1.0;"/><text fill="#000000" font-family="sans-serif" font-size="13" lengthAdjust="spacing" textLength="7" x="53.2221" y="104.0418">1</text></g><!--MD5=[aee5e01fdfa65d498ee200a7ab844c13]
link Valor to Tipo--><g id="link_Valor_Tipo"><path codeLine="6" d="M51.07,164.22 C58.89,180.62 69.4,202.69 77.68,220.06 " fill="none" id="Valor-to-Tipo" style="stroke:#181818;stroke-width:1.0;"/><polygon fill="#181818" points="79.96,224.83,79.6887,214.9849,77.8042,220.3186,72.4705,218.4341,79.96,224.83" style="stroke:#181818;stroke-width:1.0;"/><text fill="#000000" font-family="sans-serif" font-size="13" lengthAdjust="spacing" textLength="7" x="69.0524" y="213.0418">1</text></g><!--MD5=[ed8b7b7d24410dca0b8f780060562603]
link Variable to Tipo--><g id="link_Variable_Tipo"><path codeLine="7" d="M114.22,55.12 C109.42,94.96 99.61,176.45 94.41,219.65 " fill="none" id="Variable-to-Tipo" style="stroke:#181818;stroke-width:1.0;stroke-dasharray:7.0,7.0;"/><polygon fill="#181818" points="93.8,224.72,98.8496,216.2641,94.3991,219.756,90.9072,215.3056,93.8,224.72" style="stroke:#181818;stroke-width:1.0;"/><text fill="#000000" font-family="sans-serif" font-size="13" lengthAdjust="spacing" textLength="51" x="107" y="145.397">implicito</text><text fill="#000000" font-family="sans-serif" font-size="13" lengthAdjust="spacing" textLength="7" x="86.6206" y="213.3076">1</text></g><!--MD5=[1c5cdabfc0f7a12279605f5acd7bd9e8]
@startuml
class Variable
class Valor
class Tipo

Variable - -> "1" Valor
Valor - -> "1" Tipo
Variable ..> "1" Tipo : implicito
@enduml

PlantUML version 1.2022.7(Mon Aug 22 19:01:30 CEST 2022)
(GPL source distribution)
Java Runtime: OpenJDK Runtime Environment
JVM: OpenJDK 64-Bit Server VM
Default Encoding: UTF-8
Language: es
Country: ES
--></g></svg>