<?xml version="1.0" encoding="UTF-8" standalone="no"?><svg xmlns="http://www.w3.org/2000/svg" xmlns:xlink="http://www.w3.org/1999/xlink" contentStyleType="text/css" height="230px" preserveAspectRatio="none" style="width:328px;height:230px;background:#FFFFFF;" version="1.1" viewBox="0 0 328 230" width="328px" zoomAndPan="magnify"><defs/><g><!--MD5=[d90b76233c116de50efdb789cae7edae]
cluster Hardware--><g id="cluster_Hardware"><polygon fill="none" points="16,16,26,6,311,6,311,203,301,213,16,213,16,16" style="stroke:#181818;stroke-width:1.0;"/><line style="stroke:#181818;stroke-width:1.0;" x1="301" x2="311" y1="16" y2="6"/><line style="stroke:#181818;stroke-width:1.0;" x1="16" x2="301" y1="16" y2="16"/><line style="stroke:#181818;stroke-width:1.0;" x1="301" x2="301" y1="16" y2="213"/><text fill="#000000" font-family="sans-serif" font-size="14" font-weight="bold" lengthAdjust="spacing" textLength="68" x="125.5" y="33.9659">Hardware</text></g><!--MD5=[4b6082b142156e86dbabdf7a6b1baf8c]
entity Compilador--><g id="elem_Compilador"><rect fill="#F1F1F1" height="49.0679" rx="2.5" ry="2.5" style="stroke:#181818;stroke-width:0.5;" width="118" x="177" y="49"/><rect fill="#F1F1F1" height="10" style="stroke:#181818;stroke-width:0.5;" width="15" x="275" y="54"/><rect fill="#F1F1F1" height="2" style="stroke:#181818;stroke-width:0.5;" width="4" x="273" y="56"/><rect fill="#F1F1F1" height="2" style="stroke:#181818;stroke-width:0.5;" width="4" x="273" y="60"/><text fill="#000000" font-family="sans-serif" font-size="14" lengthAdjust="spacing" textLength="78" x="192" y="83.9659">Compilador</text></g><!--MD5=[c825d8e2b8a6dc452b85edcebb5859ff]
entity Codigo--><g id="elem_Codigo"><rect fill="#F1F1F1" height="39.0679" rx="2.5" ry="2.5" style="stroke:#181818;stroke-width:0.5;" width="67" x="202.5" y="158"/><text fill="#000000" font-family="sans-serif" font-size="14" lengthAdjust="spacing" textLength="47" x="212.5" y="182.9659">Codigo</text></g><!--MD5=[dd11798555ccc34610d791831a7dfda6]
entity ByteCodes--><g id="elem_ByteCodes"><rect fill="#F1F1F1" height="39.0679" rx="2.5" ry="2.5" style="stroke:#181818;stroke-width:0.5;" width="90" x="77" y="158"/><text fill="#000000" font-family="sans-serif" font-size="14" lengthAdjust="spacing" textLength="70" x="87" y="182.9659">ByteCodes</text></g><!--MD5=[be8edd2b73108e8bda34d8a757aee1d0]
entity Interprete--><g id="elem_Interprete"><rect fill="#F1F1F1" height="49.0679" rx="2.5" ry="2.5" style="stroke:#181818;stroke-width:0.5;" width="109" x="32.5" y="49"/><rect fill="#F1F1F1" height="10" style="stroke:#181818;stroke-width:0.5;" width="15" x="121.5" y="54"/><rect fill="#F1F1F1" height="2" style="stroke:#181818;stroke-width:0.5;" width="4" x="119.5" y="56"/><rect fill="#F1F1F1" height="2" style="stroke:#181818;stroke-width:0.5;" width="4" x="119.5" y="60"/><text fill="#000000" font-family="sans-serif" font-size="14" lengthAdjust="spacing" textLength="69" x="47.5" y="83.9659">Interprete</text></g><!--MD5=[a8a489f8236d57063768031323e4cfbb]
link Compilador to Codigo--><g id="link_Compilador_Codigo"><path d="M236,98.16 C236,114.44 236,136.01 236,152.39 " fill="none" id="Compilador-to-Codigo" style="stroke:#181818;stroke-width:1.0;stroke-dasharray:7.0,7.0;"/><polygon fill="#181818" points="236,157.73,240,148.73,236,152.73,232,148.73,236,157.73" style="stroke:#181818;stroke-width:1.0;"/></g><!--MD5=[51ea8c965be28a4f1937af1b6ceded99]
link Compilador to ByteCodes--><g id="link_Compilador_ByteCodes"><path d="M209.56,98.16 C190.73,115.01 165.57,137.52 147.06,154.08 " fill="none" id="Compilador-to-ByteCodes" style="stroke:#181818;stroke-width:1.0;stroke-dasharray:7.0,7.0;"/><polygon fill="#181818" points="142.98,157.73,152.3577,154.7203,146.7099,154.4002,147.0301,148.7524,142.98,157.73" style="stroke:#181818;stroke-width:1.0;"/></g><!--MD5=[60b9c99ccf76e333a3440f5a4b66eb3b]
link Interprete to ByteCodes--><g id="link_Interprete_ByteCodes"><path d="M95.12,98.16 C100.75,114.58 108.23,136.38 113.87,152.82 " fill="none" id="Interprete-to-ByteCodes" style="stroke:#181818;stroke-width:1.0;stroke-dasharray:7.0,7.0;"/><polygon fill="#181818" points="115.56,157.73,116.4112,147.918,113.9318,153.0025,108.8473,150.5231,115.56,157.73" style="stroke:#181818;stroke-width:1.0;"/></g><!--MD5=[31073986f18d5953410e0f5046ac4fe6]
reverse link ByteCodes to Codigo--><g id="link_ByteCodes_Codigo"><path d="M172.59,177.5 C182.48,177.5 192.36,177.5 202.25,177.5 " fill="none" id="ByteCodes-backto-Codigo" style="stroke:#181818;stroke-width:1.0;stroke-dasharray:7.0,7.0;"/><polygon fill="#181818" points="167.42,177.5,176.42,181.5,172.42,177.5,176.42,173.5,167.42,177.5" style="stroke:#181818;stroke-width:1.0;"/></g><!--MD5=[d5eaecc8fde1a855ad2ad6d78d00b169]
@startuml
node Hardware {
component Compilador
rectangle Codigo
rectangle ByteCodes
component Interprete
}

Compilador ..> Codigo
Compilador ..> ByteCodes
Interprete ..> ByteCodes
Codigo .l.> ByteCodes
@enduml

PlantUML version 1.2022.7(Mon Aug 22 19:01:30 CEST 2022)
(GPL source distribution)
Java Runtime: OpenJDK Runtime Environment
JVM: OpenJDK 64-Bit Server VM
Default Encoding: UTF-8
Language: es
Country: ES
--></g></svg>