<?xml version="1.0" encoding="UTF-8" standalone="no"?><svg xmlns="http://www.w3.org/2000/svg" xmlns:xlink="http://www.w3.org/1999/xlink" contentStyleType="text/css" height="240px" preserveAspectRatio="none" style="width:278px;height:240px;background:#FFFFFF;" version="1.1" viewBox="0 0 278 240" width="278px" zoomAndPan="magnify"><defs/><g><!--MD5=[d90b76233c116de50efdb789cae7edae]
cluster Hardware--><g id="cluster_Hardware"><polygon fill="none" points="16,16,26,6,261,6,261,213,251,223,16,223,16,16" style="stroke:#181818;stroke-width:1.0;"/><line style="stroke:#181818;stroke-width:1.0;" x1="251" x2="261" y1="16" y2="6"/><line style="stroke:#181818;stroke-width:1.0;" x1="16" x2="251" y1="16" y2="16"/><line style="stroke:#181818;stroke-width:1.0;" x1="251" x2="251" y1="16" y2="223"/><text fill="#000000" font-family="sans-serif" font-size="14" font-weight="bold" lengthAdjust="spacing" textLength="68" x="100.5" y="33.9659">Hardware</text></g><!--MD5=[4b6082b142156e86dbabdf7a6b1baf8c]
entity Compilador--><g id="elem_Compilador"><rect fill="#F1F1F1" height="49.0679" rx="2.5" ry="2.5" style="stroke:#181818;stroke-width:0.5;" width="118" x="79" y="49"/><rect fill="#F1F1F1" height="10" style="stroke:#181818;stroke-width:0.5;" width="15" x="177" y="54"/><rect fill="#F1F1F1" height="2" style="stroke:#181818;stroke-width:0.5;" width="4" x="175" y="56"/><rect fill="#F1F1F1" height="2" style="stroke:#181818;stroke-width:0.5;" width="4" x="175" y="60"/><text fill="#000000" font-family="sans-serif" font-size="14" lengthAdjust="spacing" textLength="78" x="94" y="83.9659">Compilador</text></g><!--MD5=[c825d8e2b8a6dc452b85edcebb5859ff]
entity Codigo--><g id="elem_Codigo"><rect fill="#F1F1F1" height="39.0679" rx="2.5" ry="2.5" style="stroke:#181818;stroke-width:0.5;" width="67" x="32.5" y="163"/><text fill="#000000" font-family="sans-serif" font-size="14" lengthAdjust="spacing" textLength="47" x="42.5" y="187.9659">Codigo</text></g><!--MD5=[bfe867edd3ec2d805626a11adddce928]
entity Ejecutable--><g id="elem_Ejecutable"><rect fill="#F1F1F1" height="49.0679" rx="2.5" ry="2.5" style="stroke:#181818;stroke-width:0.5;" width="110" x="135" y="158"/><rect fill="#F1F1F1" height="10" style="stroke:#181818;stroke-width:0.5;" width="15" x="225" y="163"/><rect fill="#F1F1F1" height="2" style="stroke:#181818;stroke-width:0.5;" width="4" x="223" y="165"/><rect fill="#F1F1F1" height="2" style="stroke:#181818;stroke-width:0.5;" width="4" x="223" y="169"/><text fill="#000000" font-family="sans-serif" font-size="14" lengthAdjust="spacing" textLength="70" x="150" y="192.9659">Ejecutable</text></g><!--MD5=[a8a489f8236d57063768031323e4cfbb]
link Compilador to Codigo--><g id="link_Compilador_Codigo"><path d="M122.02,98.25 C109.95,116.18 93.48,140.66 81.52,158.43 " fill="none" id="Compilador-to-Codigo" style="stroke:#181818;stroke-width:1.0;stroke-dasharray:7.0,7.0;"/><polygon fill="#181818" points="78.59,162.79,86.9313,157.5534,81.38,158.6408,80.2926,153.0894,78.59,162.79" style="stroke:#181818;stroke-width:1.0;"/></g><!--MD5=[7c73701a68a88fd5e21c64ff8a95154c]
link Compilador to Ejecutable--><g id="link_Compilador_Ejecutable"><path d="M149.54,98.25 C157.42,114.45 167.89,136 176.21,153.12 " fill="none" id="Compilador-to-Ejecutable" style="stroke:#181818;stroke-width:1.0;stroke-dasharray:7.0,7.0;"/><polygon fill="#181818" points="178.49,157.82,178.1559,147.9768,176.3055,153.3225,170.9598,151.472,178.49,157.82" style="stroke:#181818;stroke-width:1.0;"/></g><!--MD5=[8614dd22d5cf10342e78d54aef647ac1]
link Codigo to Ejecutable--><g id="link_Codigo_Ejecutable"><path d="M99.91,182.5 C109.8,182.5 119.69,182.5 129.58,182.5 " fill="none" id="Codigo-to-Ejecutable" style="stroke:#181818;stroke-width:1.0;stroke-dasharray:7.0,7.0;"/><polygon fill="#181818" points="134.75,182.5,125.75,178.5,129.75,182.5,125.75,186.5,134.75,182.5" style="stroke:#181818;stroke-width:1.0;"/></g><!--MD5=[32aa35d5e749c70b8af29a3c0fa361b2]
@startuml
node Hardware {
component Compilador
rectangle Codigo
component Ejecutable
}

Compilador ..> Codigo
Compilador ..> Ejecutable
Codigo .r.> Ejecutable
@enduml

PlantUML version 1.2022.7(Mon Aug 22 19:01:30 CEST 2022)
(GPL source distribution)
Java Runtime: OpenJDK Runtime Environment
JVM: OpenJDK 64-Bit Server VM
Default Encoding: UTF-8
Language: es
Country: ES
--></g></svg>