<?xml version="1.0" encoding="UTF-8" standalone="no"?><svg xmlns="http://www.w3.org/2000/svg" xmlns:xlink="http://www.w3.org/1999/xlink" contentStyleType="text/css" height="222px" preserveAspectRatio="none" style="width:467px;height:222px;background:#FFFFFF;" version="1.1" viewBox="0 0 467 222" width="467px" zoomAndPan="magnify"><defs/><g><rect fill="#FFFFFF" height="157.5301" style="stroke:#181818;stroke-width:1.0;" width="10" x="199" y="49.0679"/><rect fill="#FFFFFF" height="49.412" style="stroke:#181818;stroke-width:1.0;" width="10" x="344.5" y="110.4799"/><line style="stroke:#181818;stroke-width:0.5;stroke-dasharray:5.0,5.0;" x1="204" x2="204" y1="39.0679" y2="215.598"/><line style="stroke:#181818;stroke-width:0.5;stroke-dasharray:5.0,5.0;" x1="349" x2="349" y1="39.0679" y2="215.598"/><rect fill="#E2E2F0" height="33.0679" rx="2.5" ry="2.5" style="stroke:#181818;stroke-width:0.5;" width="48" x="180" y="5"/><text fill="#000000" font-family="sans-serif" font-size="14" lengthAdjust="spacing" textLength="34" x="187" y="26.9659">main</text><rect fill="#E2E2F0" height="33.0679" rx="2.5" ry="2.5" style="stroke:#181818;stroke-width:0.5;" width="223" x="238" y="5"/><text fill="#000000" font-family="sans-serif" font-size="14" lengthAdjust="spacing" textLength="209" x="245" y="26.9659">int unMetodo(int unParametro)</text><rect fill="#FFFFFF" height="157.5301" style="stroke:#181818;stroke-width:1.0;" width="10" x="199" y="49.0679"/><rect fill="#FFFFFF" height="49.412" style="stroke:#181818;stroke-width:1.0;" width="10" x="344.5" y="110.4799"/><path d="M5,54.0679 L5,81.0679 L194,81.0679 L194,64.0679 L184,54.0679 L5,54.0679 " fill="#FEFFDD" style="stroke:#181818;stroke-width:0.5;"/><path d="M184,54.0679 L184,64.0679 L194,64.0679 L184,54.0679 " fill="#FEFFDD" style="stroke:#181818;stroke-width:0.5;"/><text fill="#000000" font-family="sans-serif" font-size="13" lengthAdjust="spacing" textLength="168" x="11" y="72.9649">int variable = unMetodo(12);</text><polygon fill="#181818" points="332.5,106.4799,342.5,110.4799,332.5,110.4799" style="stroke:#181818;stroke-width:1.0;"/><line style="stroke:#181818;stroke-width:1.0;stroke-dasharray:2.0,2.0;" x1="209" x2="343.5" y1="110.4799" y2="110.4799"/><text fill="#000000" font-family="sans-serif" font-size="13" lengthAdjust="spacing" textLength="86" x="216" y="104.6709">unMetodo(12)</text><polygon fill="#181818" points="220,155.892,210,159.892,220,159.892" style="stroke:#181818;stroke-width:1.0;"/><line style="stroke:#181818;stroke-width:1.0;stroke-dasharray:2.0,2.0;" x1="209" x2="348.5" y1="159.892" y2="159.892"/><text fill="#000000" font-family="sans-serif" font-size="13" lengthAdjust="spacing" textLength="71" x="226" y="136.377">devuelve 24</text><text fill="#000000" font-family="sans-serif" font-size="13" lengthAdjust="spacing" textLength="94" x="226" y="154.083">como resultado</text><path d="M101,172.892 L101,199.892 L194,199.892 L194,182.892 L184,172.892 L101,172.892 " fill="#FEFFDD" style="stroke:#181818;stroke-width:0.5;"/><path d="M184,172.892 L184,182.892 L194,182.892 L184,172.892 " fill="#FEFFDD" style="stroke:#181818;stroke-width:0.5;"/><text fill="#000000" font-family="sans-serif" font-size="13" font-style="italic" lengthAdjust="spacing" textLength="72" x="107" y="191.789">variable = 24</text><!--MD5=[0757118c112b0afaf6323a90457e8d6f]
@startuml
hide footbox

activate main
note left main
int variable = unMetodo(12);
end note
"main()" as main - -\ "int unMetodo(int unParametro)" as calculo ++ : unMetodo(12)
return devuelve 24\ncomo resultado
note left main
<i>variable = 24</i>
end note



@enduml

PlantUML version 1.2022.7(Mon Aug 22 19:01:30 CEST 2022)
(GPL source distribution)
Java Runtime: OpenJDK Runtime Environment
JVM: OpenJDK 64-Bit Server VM
Default Encoding: UTF-8
Language: es
Country: ES
--></g></svg>