<?xml version="1.0" encoding="UTF-8" standalone="no"?><svg xmlns="http://www.w3.org/2000/svg" xmlns:xlink="http://www.w3.org/1999/xlink" contentStyleType="text/css" height="94px" preserveAspectRatio="none" style="width:160px;height:94px;background:#FFFFFF;" version="1.1" viewBox="0 0 160 94" width="160px" zoomAndPan="magnify"><defs/><g><rect fill="#FFFFFF" height="29" style="stroke:#181818;stroke-width:1.0;" width="10" x="24" y="49.0679"/><rect fill="#FFFFFF" height="14" style="stroke:#181818;stroke-width:1.0;" width="10" x="103.5" y="55.0679"/><line style="stroke:#181818;stroke-width:0.5;stroke-dasharray:5.0,5.0;" x1="29" x2="29" y1="39.0679" y2="87.0679"/><line style="stroke:#181818;stroke-width:0.5;stroke-dasharray:5.0,5.0;" x1="108" x2="108" y1="39.0679" y2="87.0679"/><rect fill="#E2E2F0" height="33.0679" rx="2.5" ry="2.5" style="stroke:#181818;stroke-width:0.5;" width="48" x="5" y="5"/><text fill="#000000" font-family="sans-serif" font-size="14" lengthAdjust="spacing" textLength="34" x="12" y="26.9659">main</text><rect fill="#E2E2F0" height="33.0679" rx="2.5" ry="2.5" style="stroke:#181818;stroke-width:0.5;" width="91" x="63" y="5"/><text fill="#000000" font-family="sans-serif" font-size="14" lengthAdjust="spacing" textLength="77" x="70" y="26.9659">unMetodo()</text><rect fill="#FFFFFF" height="29" style="stroke:#181818;stroke-width:1.0;" width="10" x="24" y="49.0679"/><rect fill="#FFFFFF" height="14" style="stroke:#181818;stroke-width:1.0;" width="10" x="103.5" y="55.0679"/><polygon fill="#181818" points="91.5,51.0679,101.5,55.0679,91.5,55.0679" style="stroke:#181818;stroke-width:1.0;"/><line style="stroke:#181818;stroke-width:1.0;stroke-dasharray:2.0,2.0;" x1="34" x2="102.5" y1="55.0679" y2="55.0679"/><polygon fill="#181818" points="45,65.0679,35,69.0679,45,69.0679" style="stroke:#181818;stroke-width:1.0;"/><line style="stroke:#181818;stroke-width:1.0;stroke-dasharray:2.0,2.0;" x1="34" x2="107.5" y1="69.0679" y2="69.0679"/><!--MD5=[4b032248beda9033596611cd2477eb43]
@startuml
hide footbox

activate main
"main()" as main - -\ "unMetodo()" as calculo ++
return



@enduml

PlantUML version 1.2022.7(Mon Aug 22 19:01:30 CEST 2022)
(GPL source distribution)
Java Runtime: OpenJDK Runtime Environment
JVM: OpenJDK 64-Bit Server VM
Default Encoding: UTF-8
Language: es
Country: ES
--></g></svg>