<?xml version="1.0" encoding="UTF-8" standalone="no"?><svg xmlns="http://www.w3.org/2000/svg" xmlns:xlink="http://www.w3.org/1999/xlink" contentStyleType="text/css" height="317px" preserveAspectRatio="none" style="width:933px;height:317px;background:#FFFFFF;" version="1.1" viewBox="0 0 933 317" width="933px" zoomAndPan="magnify"><defs/><g><rect fill="#F1F1F1" height="39.0679" rx="12.5" ry="12.5" style="stroke:#181818;stroke-width:1.5;" width="102" x="10" y="138.1358"/><text fill="#000000" font-family="sans-serif" font-size="14" font-weight="bold" lengthAdjust="spacing" textLength="82" x="20" y="163.1018">Paradigmas</text><rect fill="#F1F1F1" height="39.0679" rx="12.5" ry="12.5" style="stroke:#181818;stroke-width:1.5;" width="95" x="162" y="49.534"/><text fill="#000000" font-family="sans-serif" font-size="14" lengthAdjust="spacing" textLength="75" x="172" y="74.4999">Declarativo</text><rect fill="#F1F1F1" height="39.0679" rx="12.5" ry="12.5" style="stroke:#181818;stroke-width:1.5;" width="85" x="307" y="20"/><text fill="#000000" font-family="sans-serif" font-size="14" lengthAdjust="spacing" textLength="65" x="317" y="44.9659">Funcional</text><rect fill="#F1F1F1" height="39.0679" rx="12.5" ry="12.5" style="stroke:#181818;stroke-width:1.5;" width="141" x="442" y="20"/><text fill="#000000" font-family="sans-serif" font-size="14" lengthAdjust="spacing" textLength="121" x="452" y="44.9659">Orientado a datos</text><path d="M392,39.534 L402,39.534 C417,39.534 417,39.534 432,39.534 L442,39.534 " fill="none" style="stroke:#181818;stroke-width:1.0;"/><path d="M257,69.0679 L267,69.0679 C282,69.0679 282,39.534 297,39.534 L307,39.534 " fill="none" style="stroke:#181818;stroke-width:1.0;"/><rect fill="#F1F1F1" height="39.0679" rx="12.5" ry="12.5" style="stroke:#181818;stroke-width:1.5;" width="63" x="307" y="79.0679"/><text fill="#000000" font-family="sans-serif" font-size="14" lengthAdjust="spacing" textLength="43" x="317" y="104.0339">Lógico</text><path d="M257,69.0679 L267,69.0679 C282,69.0679 282,98.6019 297,98.6019 L307,98.6019 " fill="none" style="stroke:#181818;stroke-width:1.0;"/><path d="M112,157.6698 L122,157.6698 C137,157.6698 137,69.0679 152,69.0679 L162,69.0679 " fill="none" style="stroke:#181818;stroke-width:1.0;"/><rect fill="#F1F1F1" height="39.0679" rx="12.5" ry="12.5" style="stroke:#181818;stroke-width:1.5;" width="93" x="162" y="167.6698"/><text fill="#000000" font-family="sans-serif" font-size="14" lengthAdjust="spacing" textLength="73" x="172" y="192.6357">Imperativo</text><rect fill="#F1F1F1" height="39.0679" rx="12.5" ry="12.5" style="stroke:#181818;stroke-width:1.5;" width="153" x="305" y="138.1358"/><text fill="#000000" font-family="sans-serif" font-size="14" lengthAdjust="spacing" textLength="133" x="315" y="163.1018">Orientado a objetos</text><rect fill="#F1F1F1" height="39.0679" rx="12.5" ry="12.5" style="stroke:#181818;stroke-width:1.5;" width="164" x="508" y="138.1358"/><text fill="#000000" font-family="sans-serif" font-size="14" lengthAdjust="spacing" textLength="144" x="518" y="163.1018">Orientado a procesos</text><rect fill="#F1F1F1" height="39.0679" rx="12.5" ry="12.5" style="stroke:#181818;stroke-width:1.5;" width="199" x="722" y="138.1358"/><text fill="#000000" font-family="sans-serif" font-size="14" lengthAdjust="spacing" textLength="175" x="732" y="163.1018">Orientado a componentes</text><path d="M672,157.6698 L682,157.6698 C697,157.6698 697,157.6698 712,157.6698 L722,157.6698 " fill="none" style="stroke:#181818;stroke-width:1.0;"/><path d="M458,157.6698 L468,157.6698 C483,157.6698 483,157.6698 498,157.6698 L508,157.6698 " fill="none" style="stroke:#181818;stroke-width:1.0;"/><path d="M255,187.2038 L265,187.2038 C280,187.2038 280,157.6698 295,157.6698 L305,157.6698 " fill="none" style="stroke:#181818;stroke-width:1.0;"/><rect fill="#F1F1F1" height="39.0679" rx="12.5" ry="12.5" style="stroke:#181818;stroke-width:1.5;" width="104" x="305" y="197.2038"/><text fill="#000000" font-family="sans-serif" font-size="14" lengthAdjust="spacing" textLength="84" x="315" y="222.1697">Concurrente</text><path d="M255,187.2038 L265,187.2038 C280,187.2038 280,216.7377 295,216.7377 L305,216.7377 " fill="none" style="stroke:#181818;stroke-width:1.0;"/><path d="M112,157.6698 L122,157.6698 C137,157.6698 137,187.2038 152,187.2038 L162,187.2038 " fill="none" style="stroke:#181818;stroke-width:1.0;"/><rect fill="#F1F1F1" height="39.0679" rx="12.5" ry="12.5" style="stroke:#181818;stroke-width:1.5;" width="156" x="162" y="256.2717"/><text fill="#000000" font-family="sans-serif" font-size="14" lengthAdjust="spacing" textLength="136" x="172" y="281.2376">Orientado a eventos</text><path d="M112,157.6698 L122,157.6698 C137,157.6698 137,275.8056 152,275.8056 L162,275.8056 " fill="none" style="stroke:#181818;stroke-width:1.0;"/><!--MD5=[e715bc7f298578cd8ab4677ea782c6e9]
@startmindmap

+ <b>Paradigmas</b>
++ Declarativo
+++ Funcional
++++ Orientado a datos
+++ Lógico
++ Imperativo
+++ Orientado a objetos
++++ Orientado a procesos
+++++ Orientado a componentes 
+++ Concurrente
++ Orientado a eventos

@endmindmap

PlantUML version 1.2022.7(Mon Aug 22 19:01:30 CEST 2022)
(GPL source distribution)
Java Runtime: OpenJDK Runtime Environment
JVM: OpenJDK 64-Bit Server VM
Default Encoding: UTF-8
Language: es
Country: ES
--></g></svg>