<?xml version="1.0" encoding="UTF-8" standalone="no"?><svg xmlns="http://www.w3.org/2000/svg" xmlns:xlink="http://www.w3.org/1999/xlink" contentStyleType="text/css" height="227px" preserveAspectRatio="none" style="width:173px;height:227px;background:#FFFFFF;" version="1.1" viewBox="0 0 173 227" width="173px" zoomAndPan="magnify"><defs/><g><ellipse cx="77.5" cy="20" fill="#222222" rx="10" ry="10" style="stroke:#222222;stroke-width:1.0;"/><rect fill="#F1F1F1" height="36.3441" rx="12.5" ry="12.5" style="stroke:#181818;stroke-width:0.5;" width="65" x="45" y="94"/><text fill="#000000" font-family="sans-serif" font-size="12" lengthAdjust="spacing" textLength="45" x="55" y="116.8281">Proceso</text><polygon fill="#F1F1F1" points="77.5,50,89.5,62,77.5,74,65.5,62,77.5,50" style="stroke:#181818;stroke-width:0.5;"/><polygon fill="#F1F1F1" points="32,150.3441,123,150.3441,135,162.3441,123,174.3441,32,174.3441,20,162.3441,32,150.3441" style="stroke:#181818;stroke-width:0.5;"/><text fill="#000000" font-family="sans-serif" font-size="11" lengthAdjust="spacing" textLength="91" x="32" y="166.6121">Alguna condición</text><text fill="#000000" font-family="sans-serif" font-size="11" lengthAdjust="spacing" textLength="10" x="135" y="159.1211">SÍ</text><ellipse cx="77.5" cy="205.3441" fill="none" rx="11" ry="11" style="stroke:#222222;stroke-width:1.0;"/><ellipse cx="77.5" cy="205.3441" fill="#222222" rx="6" ry="6" style="stroke:#111111;stroke-width:1.0;"/><line style="stroke:#181818;stroke-width:1.0;" x1="77.5" x2="77.5" y1="74" y2="94"/><polygon fill="#181818" points="73.5,84,77.5,94,81.5,84,77.5,88" style="stroke:#181818;stroke-width:1.0;"/><line style="stroke:#181818;stroke-width:1.0;" x1="135" x2="147" y1="162.3441" y2="162.3441"/><polygon fill="#181818" points="143,122.1721,147,112.1721,151,122.1721,147,118.1721" style="stroke:#181818;stroke-width:1.0;"/><line style="stroke:#181818;stroke-width:1.0;" x1="147" x2="147" y1="62" y2="162.3441"/><line style="stroke:#181818;stroke-width:1.0;" x1="147" x2="89.5" y1="62" y2="62"/><polygon fill="#181818" points="99.5,58,89.5,62,99.5,66,95.5,62" style="stroke:#181818;stroke-width:1.0;"/><line style="stroke:#181818;stroke-width:1.0;" x1="77.5" x2="77.5" y1="130.3441" y2="150.3441"/><polygon fill="#181818" points="73.5,140.3441,77.5,150.3441,81.5,140.3441,77.5,144.3441" style="stroke:#181818;stroke-width:1.0;"/><line style="stroke:#181818;stroke-width:1.0;" x1="77.5" x2="77.5" y1="30" y2="50"/><polygon fill="#181818" points="73.5,40,77.5,50,81.5,40,77.5,44" style="stroke:#181818;stroke-width:1.0;"/><line style="stroke:#181818;stroke-width:1.0;" x1="77.5" x2="77.5" y1="174.3441" y2="194.3441"/><polygon fill="#181818" points="73.5,184.3441,77.5,194.3441,81.5,184.3441,77.5,188.3441" style="stroke:#181818;stroke-width:1.0;"/><!--MD5=[31647a28815397f1b2fdd7006b96d912]
@startuml
start 

repeat
  :Proceso;
repeat while (Alguna condición)  is (SÍ)

stop

@enduml

PlantUML version 1.2022.7(Mon Aug 22 19:01:30 CEST 2022)
(GPL source distribution)
Java Runtime: OpenJDK Runtime Environment
JVM: OpenJDK 64-Bit Server VM
Default Encoding: UTF-8
Language: es
Country: ES
--></g></svg>