<?xml version="1.0" encoding="UTF-8" standalone="no"?><svg xmlns="http://www.w3.org/2000/svg" xmlns:xlink="http://www.w3.org/1999/xlink" contentStyleType="text/css" height="494px" preserveAspectRatio="none" style="width:350px;height:494px;background:#FFFFFF;" version="1.1" viewBox="0 0 350 494" width="350px" zoomAndPan="magnify"><defs/><g><!--MD5=[e4381c76bc805a63ed90da338136522b]
class Sistema--><g id="elem_Sistema"><rect codeLine="1" fill="#F1F1F1" height="48" id="Sistema" rx="2.5" ry="2.5" style="stroke:#181818;stroke-width:0.5;" width="82" x="147" y="7"/><ellipse cx="162" cy="23" fill="#ADD1B2" rx="11" ry="11" style="stroke:#181818;stroke-width:1.0;"/><path d="M164.7656,18.875 Q164.9219,18.6563 165.1094,18.5469 Q165.2969,18.4375 165.5156,18.4375 Q165.8906,18.4375 166.125,18.7031 Q166.3594,18.9531 166.3594,19.5625 L166.3594,21.0156 Q166.3594,21.625 166.125,21.8906 Q165.8906,22.1563 165.5156,22.1563 Q165.1719,22.1563 164.9688,21.9531 Q164.7656,21.7656 164.6563,21.25 Q164.6094,20.8906 164.4219,20.7031 Q164.0938,20.3281 163.4844,20.1094 Q162.875,19.8906 162.25,19.8906 Q161.4844,19.8906 160.8438,20.2188 Q160.2188,20.5469 159.7188,21.2969 Q159.2344,22.0469 159.2344,23.0781 L159.2344,24.1719 Q159.2344,25.4063 160.125,26.2344 Q161.0156,27.0469 162.6094,27.0469 Q163.5469,27.0469 164.2031,26.7969 Q164.5938,26.6406 165.0156,26.2031 Q165.2813,25.9375 165.4219,25.8594 Q165.5781,25.7813 165.7813,25.7813 Q166.1094,25.7813 166.3594,26.0469 Q166.625,26.2969 166.625,26.6406 Q166.625,26.9844 166.2813,27.3906 Q165.7813,27.9688 164.9844,28.2969 Q163.9063,28.75 162.6094,28.75 Q161.0938,28.75 159.8906,28.125 Q158.9063,27.625 158.2188,26.5625 Q157.5313,25.4844 157.5313,24.2031 L157.5313,23.0469 Q157.5313,21.7188 158.1406,20.5781 Q158.7656,19.4219 159.8594,18.8125 Q160.9531,18.1875 162.1875,18.1875 Q162.9219,18.1875 163.5625,18.3594 Q164.2188,18.5156 164.7656,18.875 Z " fill="#000000"/><text fill="#000000" font-family="sans-serif" font-size="14" lengthAdjust="spacing" textLength="50" x="176" y="28.7285">Sistema</text><line style="stroke:#181818;stroke-width:0.5;" x1="148" x2="228" y1="39" y2="39"/><line style="stroke:#181818;stroke-width:0.5;" x1="148" x2="228" y1="47" y2="47"/></g><!--MD5=[93e93e96b74e1f21dc40d1c6a31be5a2]
class SistemaComplejo--><g id="elem_SistemaComplejo"><rect codeLine="2" fill="#F1F1F1" height="48" id="SistemaComplejo" rx="2.5" ry="2.5" style="stroke:#181818;stroke-width:0.5;" width="145" x="52.5" y="115"/><ellipse cx="67.5" cy="131" fill="#ADD1B2" rx="11" ry="11" style="stroke:#181818;stroke-width:1.0;"/><path d="M70.2656,126.875 Q70.4219,126.6563 70.6094,126.5469 Q70.7969,126.4375 71.0156,126.4375 Q71.3906,126.4375 71.625,126.7031 Q71.8594,126.9531 71.8594,127.5625 L71.8594,129.0156 Q71.8594,129.625 71.625,129.8906 Q71.3906,130.1563 71.0156,130.1563 Q70.6719,130.1563 70.4688,129.9531 Q70.2656,129.7656 70.1563,129.25 Q70.1094,128.8906 69.9219,128.7031 Q69.5938,128.3281 68.9844,128.1094 Q68.375,127.8906 67.75,127.8906 Q66.9844,127.8906 66.3438,128.2188 Q65.7188,128.5469 65.2188,129.2969 Q64.7344,130.0469 64.7344,131.0781 L64.7344,132.1719 Q64.7344,133.4063 65.625,134.2344 Q66.5156,135.0469 68.1094,135.0469 Q69.0469,135.0469 69.7031,134.7969 Q70.0938,134.6406 70.5156,134.2031 Q70.7813,133.9375 70.9219,133.8594 Q71.0781,133.7813 71.2813,133.7813 Q71.6094,133.7813 71.8594,134.0469 Q72.125,134.2969 72.125,134.6406 Q72.125,134.9844 71.7813,135.3906 Q71.2813,135.9688 70.4844,136.2969 Q69.4063,136.75 68.1094,136.75 Q66.5938,136.75 65.3906,136.125 Q64.4063,135.625 63.7188,134.5625 Q63.0313,133.4844 63.0313,132.2031 L63.0313,131.0469 Q63.0313,129.7188 63.6406,128.5781 Q64.2656,127.4219 65.3594,126.8125 Q66.4531,126.1875 67.6875,126.1875 Q68.4219,126.1875 69.0625,126.3594 Q69.7188,126.5156 70.2656,126.875 Z " fill="#000000"/><text fill="#000000" font-family="sans-serif" font-size="14" lengthAdjust="spacing" textLength="113" x="81.5" y="136.7285">Sistema Complejo</text><line style="stroke:#181818;stroke-width:0.5;" x1="53.5" x2="196.5" y1="147" y2="147"/><line style="stroke:#181818;stroke-width:0.5;" x1="53.5" x2="196.5" y1="155" y2="155"/></g><!--MD5=[ec93e680e5c079a1bb6337ff2b922fa4]
class Software--><g id="elem_Software"><rect codeLine="7" fill="#F1F1F1" height="48" id="Software" rx="2.5" ry="2.5" style="stroke:#181818;stroke-width:0.5;" width="87" x="140.5" y="331"/><ellipse cx="155.5" cy="347" fill="#ADD1B2" rx="11" ry="11" style="stroke:#181818;stroke-width:1.0;"/><path d="M158.2656,342.875 Q158.4219,342.6563 158.6094,342.5469 Q158.7969,342.4375 159.0156,342.4375 Q159.3906,342.4375 159.625,342.7031 Q159.8594,342.9531 159.8594,343.5625 L159.8594,345.0156 Q159.8594,345.625 159.625,345.8906 Q159.3906,346.1563 159.0156,346.1563 Q158.6719,346.1563 158.4688,345.9531 Q158.2656,345.7656 158.1563,345.25 Q158.1094,344.8906 157.9219,344.7031 Q157.5938,344.3281 156.9844,344.1094 Q156.375,343.8906 155.75,343.8906 Q154.9844,343.8906 154.3438,344.2188 Q153.7188,344.5469 153.2188,345.2969 Q152.7344,346.0469 152.7344,347.0781 L152.7344,348.1719 Q152.7344,349.4063 153.625,350.2344 Q154.5156,351.0469 156.1094,351.0469 Q157.0469,351.0469 157.7031,350.7969 Q158.0938,350.6406 158.5156,350.2031 Q158.7813,349.9375 158.9219,349.8594 Q159.0781,349.7813 159.2813,349.7813 Q159.6094,349.7813 159.8594,350.0469 Q160.125,350.2969 160.125,350.6406 Q160.125,350.9844 159.7813,351.3906 Q159.2813,351.9688 158.4844,352.2969 Q157.4063,352.75 156.1094,352.75 Q154.5938,352.75 153.3906,352.125 Q152.4063,351.625 151.7188,350.5625 Q151.0313,349.4844 151.0313,348.2031 L151.0313,347.0469 Q151.0313,345.7188 151.6406,344.5781 Q152.2656,343.4219 153.3594,342.8125 Q154.4531,342.1875 155.6875,342.1875 Q156.4219,342.1875 157.0625,342.3594 Q157.7188,342.5156 158.2656,342.875 Z " fill="#000000"/><text fill="#000000" font-family="sans-serif" font-size="14" lengthAdjust="spacing" textLength="55" x="169.5" y="352.7285">Software</text><line style="stroke:#181818;stroke-width:0.5;" x1="141.5" x2="226.5" y1="363" y2="363"/><line style="stroke:#181818;stroke-width:0.5;" x1="141.5" x2="226.5" y1="371" y2="371"/></g><!--MD5=[75fc1eba2c71d851ba5d58ff14495b9b]
class Informacion--><g id="elem_Informacion"><rect codeLine="6" fill="#F1F1F1" height="48" id="Informacion" rx="2.5" ry="2.5" style="stroke:#181818;stroke-width:0.5;" width="105" x="238.5" y="223"/><ellipse cx="253.5" cy="239" fill="#ADD1B2" rx="11" ry="11" style="stroke:#181818;stroke-width:1.0;"/><path d="M256.2656,234.875 Q256.4219,234.6563 256.6094,234.5469 Q256.7969,234.4375 257.0156,234.4375 Q257.3906,234.4375 257.625,234.7031 Q257.8594,234.9531 257.8594,235.5625 L257.8594,237.0156 Q257.8594,237.625 257.625,237.8906 Q257.3906,238.1563 257.0156,238.1563 Q256.6719,238.1563 256.4688,237.9531 Q256.2656,237.7656 256.1563,237.25 Q256.1094,236.8906 255.9219,236.7031 Q255.5938,236.3281 254.9844,236.1094 Q254.375,235.8906 253.75,235.8906 Q252.9844,235.8906 252.3438,236.2188 Q251.7188,236.5469 251.2188,237.2969 Q250.7344,238.0469 250.7344,239.0781 L250.7344,240.1719 Q250.7344,241.4063 251.625,242.2344 Q252.5156,243.0469 254.1094,243.0469 Q255.0469,243.0469 255.7031,242.7969 Q256.0938,242.6406 256.5156,242.2031 Q256.7813,241.9375 256.9219,241.8594 Q257.0781,241.7813 257.2813,241.7813 Q257.6094,241.7813 257.8594,242.0469 Q258.125,242.2969 258.125,242.6406 Q258.125,242.9844 257.7813,243.3906 Q257.2813,243.9688 256.4844,244.2969 Q255.4063,244.75 254.1094,244.75 Q252.5938,244.75 251.3906,244.125 Q250.4063,243.625 249.7188,242.5625 Q249.0313,241.4844 249.0313,240.2031 L249.0313,239.0469 Q249.0313,237.7188 249.6406,236.5781 Q250.2656,235.4219 251.3594,234.8125 Q252.4531,234.1875 253.6875,234.1875 Q254.4219,234.1875 255.0625,234.3594 Q255.7188,234.5156 256.2656,234.875 Z " fill="#000000"/><text fill="#000000" font-family="sans-serif" font-size="14" lengthAdjust="spacing" textLength="73" x="267.5" y="244.7285">Informaci贸n</text><line style="stroke:#181818;stroke-width:0.5;" x1="239.5" x2="342.5" y1="255" y2="255"/><line style="stroke:#181818;stroke-width:0.5;" x1="239.5" x2="342.5" y1="263" y2="263"/></g><!--MD5=[35a64b983c79880384a2fd9b61f0c24b]
class Usuario--><g id="elem_Usuario"><rect codeLine="8" fill="#F1F1F1" height="48" id="Usuario" rx="2.5" ry="2.5" style="stroke:#181818;stroke-width:0.5;" width="254" x="7" y="439"/><ellipse cx="22" cy="455" fill="#ADD1B2" rx="11" ry="11" style="stroke:#181818;stroke-width:1.0;"/><path d="M24.7656,450.875 Q24.9219,450.6563 25.1094,450.5469 Q25.2969,450.4375 25.5156,450.4375 Q25.8906,450.4375 26.125,450.7031 Q26.3594,450.9531 26.3594,451.5625 L26.3594,453.0156 Q26.3594,453.625 26.125,453.8906 Q25.8906,454.1563 25.5156,454.1563 Q25.1719,454.1563 24.9688,453.9531 Q24.7656,453.7656 24.6563,453.25 Q24.6094,452.8906 24.4219,452.7031 Q24.0938,452.3281 23.4844,452.1094 Q22.875,451.8906 22.25,451.8906 Q21.4844,451.8906 20.8438,452.2188 Q20.2188,452.5469 19.7188,453.2969 Q19.2344,454.0469 19.2344,455.0781 L19.2344,456.1719 Q19.2344,457.4063 20.125,458.2344 Q21.0156,459.0469 22.6094,459.0469 Q23.5469,459.0469 24.2031,458.7969 Q24.5938,458.6406 25.0156,458.2031 Q25.2813,457.9375 25.4219,457.8594 Q25.5781,457.7813 25.7813,457.7813 Q26.1094,457.7813 26.3594,458.0469 Q26.625,458.2969 26.625,458.6406 Q26.625,458.9844 26.2813,459.3906 Q25.7813,459.9688 24.9844,460.2969 Q23.9063,460.75 22.6094,460.75 Q21.0938,460.75 19.8906,460.125 Q18.9063,459.625 18.2188,458.5625 Q17.5313,457.4844 17.5313,456.2031 L17.5313,455.0469 Q17.5313,453.7188 18.1406,452.5781 Q18.7656,451.4219 19.8594,450.8125 Q20.9531,450.1875 22.1875,450.1875 Q22.9219,450.1875 23.5625,450.3594 Q24.2188,450.5156 24.7656,450.875 Z " fill="#000000"/><text fill="#000000" font-family="sans-serif" font-size="14" lengthAdjust="spacing" textLength="222" x="36" y="460.7285">Sistema de Informaci贸n del Usuario</text><line style="stroke:#181818;stroke-width:0.5;" x1="8" x2="260" y1="471" y2="471"/><line style="stroke:#181818;stroke-width:0.5;" x1="8" x2="260" y1="479" y2="479"/></g><!--MD5=[2d22c547bfe7267814a0b6e9c8ad476f]
class Hardware--><g id="elem_Hardware"><rect codeLine="16" fill="#F1F1F1" height="48" id="Hardware" rx="2.5" ry="2.5" style="stroke:#181818;stroke-width:0.5;" width="92" x="40" y="223"/><ellipse cx="55" cy="239" fill="#ADD1B2" rx="11" ry="11" style="stroke:#181818;stroke-width:1.0;"/><path d="M57.7656,234.875 Q57.9219,234.6563 58.1094,234.5469 Q58.2969,234.4375 58.5156,234.4375 Q58.8906,234.4375 59.125,234.7031 Q59.3594,234.9531 59.3594,235.5625 L59.3594,237.0156 Q59.3594,237.625 59.125,237.8906 Q58.8906,238.1563 58.5156,238.1563 Q58.1719,238.1563 57.9688,237.9531 Q57.7656,237.7656 57.6563,237.25 Q57.6094,236.8906 57.4219,236.7031 Q57.0938,236.3281 56.4844,236.1094 Q55.875,235.8906 55.25,235.8906 Q54.4844,235.8906 53.8438,236.2188 Q53.2188,236.5469 52.7188,237.2969 Q52.2344,238.0469 52.2344,239.0781 L52.2344,240.1719 Q52.2344,241.4063 53.125,242.2344 Q54.0156,243.0469 55.6094,243.0469 Q56.5469,243.0469 57.2031,242.7969 Q57.5938,242.6406 58.0156,242.2031 Q58.2813,241.9375 58.4219,241.8594 Q58.5781,241.7813 58.7813,241.7813 Q59.1094,241.7813 59.3594,242.0469 Q59.625,242.2969 59.625,242.6406 Q59.625,242.9844 59.2813,243.3906 Q58.7813,243.9688 57.9844,244.2969 Q56.9063,244.75 55.6094,244.75 Q54.0938,244.75 52.8906,244.125 Q51.9063,243.625 51.2188,242.5625 Q50.5313,241.4844 50.5313,240.2031 L50.5313,239.0469 Q50.5313,237.7188 51.1406,236.5781 Q51.7656,235.4219 52.8594,234.8125 Q53.9531,234.1875 55.1875,234.1875 Q55.9219,234.1875 56.5625,234.3594 Q57.2188,234.5156 57.7656,234.875 Z " fill="#000000"/><text fill="#000000" font-family="sans-serif" font-size="14" lengthAdjust="spacing" textLength="60" x="69" y="244.7285">Hardware</text><line style="stroke:#181818;stroke-width:0.5;" x1="41" x2="131" y1="255" y2="255"/><line style="stroke:#181818;stroke-width:0.5;" x1="41" x2="131" y1="263" y2="263"/></g><!--MD5=[ed9ff047bd24f055ebfb523aa4b1bdbe]
reverse link Sistema to SistemaComplejo--><g id="link_Sistema_SistemaComplejo"><path codeLine="4" d="M163.86,72.61 C155.4,86.85 146.19,102.35 138.86,114.68 " fill="none" id="Sistema-backto-SistemaComplejo" style="stroke:#181818;stroke-width:1.0;"/><polygon fill="none" points="158.09,68.62,174.33,55,170.13,75.77,158.09,68.62" style="stroke:#181818;stroke-width:1.0;"/></g><!--MD5=[aea5048efd2a9320a1df157fa889af6b]
reverse link SistemaComplejo to Software--><g id="link_SistemaComplejo_Software"><path codeLine="5" d="M138.19,182.65 C142.1,195.58 146.31,209.85 150,223 C160.53,260.56 171.7,304.49 178.25,330.74 " fill="none" id="SistemaComplejo-backto-Software" style="stroke:#181818;stroke-width:1.0;"/><polygon fill="none" points="131.39,184.36,132.25,163.18,144.78,180.27,131.39,184.36" style="stroke:#181818;stroke-width:1.0;"/></g><!--MD5=[a47bc5fa0eeedb6fd73f3573160a31f3]
reverse link SistemaComplejo to Usuario--><g id="link_SistemaComplejo_Usuario"><path codeLine="10" d="M64.17,174.62 C47.37,187.47 31.23,203.71 22,223 C12.79,242.24 16.41,250.41 22,271 C40.08,337.59 87.87,404.7 114.82,438.86 " fill="none" id="SistemaComplejo-backto-Usuario" style="stroke:#181818;stroke-width:1.0;"/><polygon fill="none" points="60.22,168.84,80.62,163.13,68.24,180.32,60.22,168.84" style="stroke:#181818;stroke-width:1.0;"/></g><!--MD5=[eb2353c737bb55908092bbe0078510c0]
reverse link Sistema to Informacion--><g id="link_Sistema_Informacion"><path codeLine="11" d="M207.99,73.53 C229.39,117.99 262.58,186.96 279.79,222.72 " fill="none" id="Sistema-backto-Informacion" style="stroke:#181818;stroke-width:1.0;"/><polygon fill="none" points="201.59,76.37,199.22,55.31,214.2,70.29,201.59,76.37" style="stroke:#181818;stroke-width:1.0;"/></g><!--MD5=[a59be46764f62a2fc3f0bfacaa08ec50]
reverse link Informacion to Software--><g id="link_Informacion_Software"><path codeLine="12" d="M253.37,285.28 C238.12,300.39 220.97,317.38 207.54,330.68 " fill="none" id="Informacion-backto-Software" style="stroke:#181818;stroke-width:1.0;"/><polygon fill="none" points="248.65,280.1,267.78,271,258.5,290.05,248.65,280.1" style="stroke:#181818;stroke-width:1.0;"/></g><!--MD5=[60507345599b5c82d8ae6a10c02d2706]
reverse link Informacion to Usuario--><g id="link_Informacion_Usuario"><path codeLine="13" d="M282.66,291.07 C275.85,318.22 264.13,352.93 245,379 C226.85,403.73 199.24,424.42 176.1,438.95 " fill="none" id="Informacion-backto-Usuario" style="stroke:#181818;stroke-width:1.0;"/><polygon fill="none" points="275.9,289.21,287.12,271.23,289.56,292.28,275.9,289.21" style="stroke:#181818;stroke-width:1.0;"/></g><!--MD5=[ac71aa912d4e60db92434e05b1e5120c]
link Software to Usuario--><g id="link_Software_Usuario"><path codeLine="14" d="M173.15,379 C165.54,395.14 155.31,416.82 147.22,433.97 " fill="none" id="Software-to-Usuario" style="stroke:#181818;stroke-width:1.0;"/><polygon fill="#181818" points="145,438.68,152.4485,432.2364,147.1269,434.1549,145.2084,428.8333,145,438.68" style="stroke:#181818;stroke-width:1.0;"/></g><!--MD5=[7e4a8008fa8ecbd82f4d8d7e83b08b5c]
reverse link SistemaComplejo to Hardware--><g id="link_SistemaComplejo_Hardware"><path codeLine="17" d="M109.53,182.06 C104.44,195.89 98.97,210.76 94.58,222.68 " fill="none" id="SistemaComplejo-backto-Hardware" style="stroke:#181818;stroke-width:1.0;"/><polygon fill="none" points="103.06,179.35,116.54,163,116.2,184.19,103.06,179.35" style="stroke:#181818;stroke-width:1.0;"/></g><!--MD5=[27303d572bce8c8b49a49c71c7766901]
link Hardware to Software--><g id="link_Hardware_Software"><path codeLine="19" d="M115.4021,279.8151 C115.4021,279.8151 141.5,308.03 153.36,320.85 " fill="none" id="Hardware-Software" style="stroke:#181818;stroke-width:1.0;"/><polygon fill="#181818" points="162.44,330.68,159.2643,321.3572,159.0445,327.0098,153.3919,326.79,162.44,330.68" style="stroke:#181818;stroke-width:1.0;"/><line style="stroke:#181818;stroke-width:1.0;" x1="159.0445" x2="153.61" y1="327.0098" y2="321.13"/><polygon fill="#181818" points="107.26,271,108.3927,278.1216,115.4021,279.8151,114.2694,272.6935,107.26,271" style="stroke:#181818;stroke-width:1.0;"/></g><!--MD5=[521ed7c8e76615f8b23b94eb9092dade]
link Hardware to Usuario--><g id="link_Hardware_Usuario"><path codeLine="20" d="M93.8541,283.0196 C93.8541,283.0196 117.04,386.41 125.89,425.82 " fill="none" id="Hardware-Usuario" style="stroke:#181818;stroke-width:1.0;"/><polygon fill="#181818" points="128.78,438.72,130.7151,429.0631,127.6866,433.841,122.9087,430.8125,128.78,438.72" style="stroke:#181818;stroke-width:1.0;"/><line style="stroke:#181818;stroke-width:1.0;" x1="127.6866" x2="125.93" y1="433.841" y2="426.035"/><polygon fill="#181818" points="91.23,271.31,88.6389,278.0395,93.8541,283.0196,96.4452,276.2901,91.23,271.31" style="stroke:#181818;stroke-width:1.0;"/></g><!--MD5=[07f15e9c467ec5d64ed9bb196180df5e]
@startuml
class Sistema
class "Sistema Complejo" as SistemaComplejo

Sistema <|-down- SistemaComplejo
SistemaComplejo <|-down- Software
class "Informaci贸n" as Informacion
class Software
class "Sistema de Informaci贸n del Usuario" as Usuario

SistemaComplejo <|-down- Usuario
Sistema <|-down- Informacion
Informacion <|-down- Software
Informacion <|-down- Usuario
Software -down-> Usuario

class Hardware
SistemaComplejo <|-down- Hardware

Hardware *-down-> Software
Hardware *-down-> Usuario
@enduml

PlantUML version 1.2022.7(Mon Aug 22 19:01:30 CEST 2022)
(GPL source distribution)
Java Runtime: Java(TM) SE Runtime Environment
JVM: Java HotSpot(TM) 64-Bit Server VM
Default Encoding: UTF-8
Language: es
Country: ES
--></g></svg>