<?xml version="1.0" encoding="UTF-8" standalone="no"?><svg xmlns="http://www.w3.org/2000/svg" xmlns:xlink="http://www.w3.org/1999/xlink" contentStyleType="text/css" height="519px" preserveAspectRatio="none" style="width:1477px;height:519px;background:#FFFFFF;" version="1.1" viewBox="0 0 1477 519" width="1477px" zoomAndPan="magnify"><defs/><g><!--MD5=[eb4e2a40f0d210208f14ea4a2d93f8ee]
class Tipo--><g id="elem_Tipo"><rect codeLine="1" fill="#F1F1F1" height="48" id="Tipo" rx="2.5" ry="2.5" style="stroke:#181818;stroke-width:0.5;" width="59" x="946" y="7"/><ellipse cx="961" cy="23" fill="#A9DCDF" rx="11" ry="11" style="stroke:#181818;stroke-width:1.0;"/><path d="M956.1719,28.75 L959.5156,16.5625 L962.6563,16.5625 L966.0313,28.75 L963.5625,28.75 L962.8281,25.7344 L959.3125,25.7344 L958.5625,28.75 L956.1719,28.75 Z M960.5781,20.7031 L959.8281,23.7031 L962.3438,23.7031 L961.625,20.7031 Q961.4844,20.125 961.3594,19.5781 Q961.2344,19.0156 961.0938,18.4375 Q960.9844,19.0156 960.8438,19.5781 Q960.7031,20.125 960.5781,20.7031 Z " fill="#000000"/><text fill="#000000" font-family="sans-serif" font-size="14" font-style="italic" lengthAdjust="spacing" textLength="27" x="975" y="28.432">Tipo</text><line style="stroke:#181818;stroke-width:0.5;" x1="947" x2="1004" y1="39" y2="39"/><line style="stroke:#181818;stroke-width:0.5;" x1="947" x2="1004" y1="47" y2="47"/></g><!--MD5=[f88c406c9ef1572482fc425f898b6739]
class number--><g id="elem_number"><rect codeLine="3" fill="#F1F1F1" height="143.3396" id="number" rx="2.5" ry="2.5" style="stroke:#181818;stroke-width:0.5;" width="335" x="348" y="115"/><ellipse cx="480.75" cy="131" fill="#A9DCDF" rx="11" ry="11" style="stroke:#181818;stroke-width:1.0;"/><path d="M475.9219,136.75 L479.2656,124.5625 L482.4063,124.5625 L485.7813,136.75 L483.3125,136.75 L482.5781,133.7344 L479.0625,133.7344 L478.3125,136.75 L475.9219,136.75 Z M480.3281,128.7031 L479.5781,131.7031 L482.0938,131.7031 L481.375,128.7031 Q481.2344,128.125 481.1094,127.5781 Q480.9844,127.0156 480.8438,126.4375 Q480.7344,127.0156 480.5938,127.5781 Q480.4531,128.125 480.3281,128.7031 Z " fill="#000000"/><text fill="#000000" font-family="sans-serif" font-size="14" font-style="italic" lengthAdjust="spacing" textLength="61" x="501.25" y="136.432">Numérico</text><line style="stroke:#181818;stroke-width:0.5;" x1="349" x2="682" y1="147" y2="147"/><text fill="#000000" font-family="sans-serif" font-size="14" lengthAdjust="spacing" textLength="183" x="354" y="165.9659">valor decimal: 666, -1, 0.42,</text><text fill="#000000" font-family="sans-serif" font-size="14" lengthAdjust="spacing" textLength="101" x="354" y="185.0339">valor octal: 024</text><text fill="#000000" font-family="sans-serif" font-size="14" lengthAdjust="spacing" textLength="161" x="354" y="204.1018">valor hexadecimal: 0x42</text><text fill="#000000" font-family="sans-serif" font-size="14" lengthAdjust="spacing" textLength="146" x="354" y="223.1697">operador unarios: +, -</text><text fill="#000000" font-family="sans-serif" font-size="14" lengthAdjust="spacing" textLength="323" x="354" y="242.2376">operador binarios: +, -, *, /, %, ==, !=, &gt;, &gt;=, &lt;, &lt;=</text><line style="stroke:#181818;stroke-width:0.5;" x1="349" x2="682" y1="250.3396" y2="250.3396"/></g><!--MD5=[c5166ccd06447dc20750a4904d918d0b]
class entero--><g id="elem_entero"><rect codeLine="11" fill="#F1F1F1" height="48" id="entero" rx="2.5" ry="2.5" style="stroke:#181818;stroke-width:0.5;" width="73" x="272" y="318"/><ellipse cx="287" cy="334" fill="#A9DCDF" rx="11" ry="11" style="stroke:#181818;stroke-width:1.0;"/><path d="M282.1719,339.75 L285.5156,327.5625 L288.6563,327.5625 L292.0313,339.75 L289.5625,339.75 L288.8281,336.7344 L285.3125,336.7344 L284.5625,339.75 L282.1719,339.75 Z M286.5781,331.7031 L285.8281,334.7031 L288.3438,334.7031 L287.625,331.7031 Q287.4844,331.125 287.3594,330.5781 Q287.2344,330.0156 287.0938,329.4375 Q286.9844,330.0156 286.8438,330.5781 Q286.7031,331.125 286.5781,331.7031 Z " fill="#000000"/><text fill="#000000" font-family="sans-serif" font-size="14" font-style="italic" lengthAdjust="spacing" textLength="41" x="301" y="339.432">Entero</text><line style="stroke:#181818;stroke-width:0.5;" x1="273" x2="344" y1="350" y2="350"/><line style="stroke:#181818;stroke-width:0.5;" x1="273" x2="344" y1="358" y2="358"/></g><!--MD5=[a49f376d10688fbd6b369da415a5a015]
class byte--><g id="elem_byte"><rect codeLine="15" fill="#F1F1F1" height="86.1358" id="byte" rx="2.5" ry="2.5" style="stroke:#181818;stroke-width:0.5;" width="75" x="7" y="426"/><ellipse cx="27.4" cy="442" fill="#ADD1B2" rx="11" ry="11" style="stroke:#181818;stroke-width:1.0;"/><path d="M26.8688,448.9219 Q25.1188,448.9219 23.9781,448.1875 Q22.8531,447.4375 22.2906,446.0938 Q21.7438,444.7344 21.7438,442.9375 Q21.7438,440.9063 22.4,439.4531 Q23.0563,438 24.3375,437.2188 Q25.6188,436.4375 27.4938,436.4375 Q28.3844,436.4375 29.0563,436.625 Q29.7281,436.7969 30.4156,437.1406 L29.6031,439.1563 Q28.9781,438.8438 28.4313,438.7188 Q27.9,438.5938 27.4156,438.5938 Q26.2438,438.5938 25.5406,439.125 Q24.8375,439.6563 24.5406,440.6094 Q24.2438,441.5625 24.2438,442.8281 Q24.2438,444.8438 24.9625,445.8125 Q25.6813,446.7656 27.275,446.7656 Q27.8688,446.7656 28.4938,446.6094 Q29.1188,446.4531 29.9469,446.0781 L29.9469,448.2969 Q29.2125,448.6094 28.4156,448.7656 Q27.6344,448.9219 26.8688,448.9219 Z " fill="#000000"/><text fill="#000000" font-family="sans-serif" font-size="14" font-weight="bold" lengthAdjust="spacing" textLength="31" x="42.6" y="447.432">byte</text><line style="stroke:#181818;stroke-width:0.5;" x1="8" x2="81" y1="458" y2="458"/><text fill="#000000" font-family="sans-serif" font-size="14" lengthAdjust="spacing" textLength="63" x="13" y="476.9659">min: -128</text><text fill="#000000" font-family="sans-serif" font-size="14" lengthAdjust="spacing" textLength="60" x="13" y="496.0339">max: 127</text><line style="stroke:#181818;stroke-width:0.5;" x1="8" x2="81" y1="504.1358" y2="504.1358"/></g><!--MD5=[9f51bf82129594e8900cc073dd35db6d]
class short--><g id="elem_short"><rect codeLine="21" fill="#F1F1F1" height="86.1358" id="short" rx="2.5" ry="2.5" style="stroke:#181818;stroke-width:0.5;" width="91" x="117" y="426"/><ellipse cx="141.9" cy="442" fill="#ADD1B2" rx="11" ry="11" style="stroke:#181818;stroke-width:1.0;"/><path d="M141.3688,448.9219 Q139.6188,448.9219 138.4781,448.1875 Q137.3531,447.4375 136.7906,446.0938 Q136.2438,444.7344 136.2438,442.9375 Q136.2438,440.9063 136.9,439.4531 Q137.5563,438 138.8375,437.2188 Q140.1188,436.4375 141.9938,436.4375 Q142.8844,436.4375 143.5563,436.625 Q144.2281,436.7969 144.9156,437.1406 L144.1031,439.1563 Q143.4781,438.8438 142.9313,438.7188 Q142.4,438.5938 141.9156,438.5938 Q140.7438,438.5938 140.0406,439.125 Q139.3375,439.6563 139.0406,440.6094 Q138.7438,441.5625 138.7438,442.8281 Q138.7438,444.8438 139.4625,445.8125 Q140.1813,446.7656 141.775,446.7656 Q142.3688,446.7656 142.9938,446.6094 Q143.6188,446.4531 144.4469,446.0781 L144.4469,448.2969 Q143.7125,448.6094 142.9156,448.7656 Q142.1344,448.9219 141.3688,448.9219 Z " fill="#000000"/><text fill="#000000" font-family="sans-serif" font-size="14" font-weight="bold" lengthAdjust="spacing" textLength="37" x="158.1" y="447.432">short</text><line style="stroke:#181818;stroke-width:0.5;" x1="118" x2="207" y1="458" y2="458"/><text fill="#000000" font-family="sans-serif" font-size="14" lengthAdjust="spacing" textLength="79" x="123" y="476.9659">min: -32768</text><text fill="#000000" font-family="sans-serif" font-size="14" lengthAdjust="spacing" textLength="76" x="123" y="496.0339">max: 32767</text><line style="stroke:#181818;stroke-width:0.5;" x1="118" x2="207" y1="504.1358" y2="504.1358"/></g><!--MD5=[d68b55ae5204a42531f4741f089e2ccd]
class int--><g id="elem_int"><rect codeLine="27" fill="#F1F1F1" height="86.1358" id="int" rx="2.5" ry="2.5" style="stroke:#181818;stroke-width:0.5;" width="131" x="243" y="426"/><ellipse cx="294.75" cy="442" fill="#ADD1B2" rx="11" ry="11" style="stroke:#181818;stroke-width:1.0;"/><path d="M294.2188,448.9219 Q292.4688,448.9219 291.3281,448.1875 Q290.2031,447.4375 289.6406,446.0938 Q289.0938,444.7344 289.0938,442.9375 Q289.0938,440.9063 289.75,439.4531 Q290.4063,438 291.6875,437.2188 Q292.9688,436.4375 294.8438,436.4375 Q295.7344,436.4375 296.4063,436.625 Q297.0781,436.7969 297.7656,437.1406 L296.9531,439.1563 Q296.3281,438.8438 295.7813,438.7188 Q295.25,438.5938 294.7656,438.5938 Q293.5938,438.5938 292.8906,439.125 Q292.1875,439.6563 291.8906,440.6094 Q291.5938,441.5625 291.5938,442.8281 Q291.5938,444.8438 292.3125,445.8125 Q293.0313,446.7656 294.625,446.7656 Q295.2188,446.7656 295.8438,446.6094 Q296.4688,446.4531 297.2969,446.0781 L297.2969,448.2969 Q296.5625,448.6094 295.7656,448.7656 Q294.9844,448.9219 294.2188,448.9219 Z " fill="#000000"/><text fill="#000000" font-family="sans-serif" font-size="14" font-weight="bold" lengthAdjust="spacing" textLength="19" x="315.25" y="447.432">int</text><line style="stroke:#181818;stroke-width:0.5;" x1="244" x2="373" y1="458" y2="458"/><text fill="#000000" font-family="sans-serif" font-size="14" lengthAdjust="spacing" textLength="119" x="249" y="476.9659">min: -2147483648</text><text fill="#000000" font-family="sans-serif" font-size="14" lengthAdjust="spacing" textLength="116" x="249" y="496.0339">max: 2147483647</text><line style="stroke:#181818;stroke-width:0.5;" x1="244" x2="373" y1="504.1358" y2="504.1358"/></g><!--MD5=[4ebb827995ee18633a8c71a9e92d5157]
class long--><g id="elem_long"><rect codeLine="33" fill="#F1F1F1" height="86.1358" id="long" rx="2.5" ry="2.5" style="stroke:#181818;stroke-width:0.5;" width="195" x="409" y="426"/><ellipse cx="486.75" cy="442" fill="#ADD1B2" rx="11" ry="11" style="stroke:#181818;stroke-width:1.0;"/><path d="M486.2188,448.9219 Q484.4688,448.9219 483.3281,448.1875 Q482.2031,447.4375 481.6406,446.0938 Q481.0938,444.7344 481.0938,442.9375 Q481.0938,440.9063 481.75,439.4531 Q482.4063,438 483.6875,437.2188 Q484.9688,436.4375 486.8438,436.4375 Q487.7344,436.4375 488.4063,436.625 Q489.0781,436.7969 489.7656,437.1406 L488.9531,439.1563 Q488.3281,438.8438 487.7813,438.7188 Q487.25,438.5938 486.7656,438.5938 Q485.5938,438.5938 484.8906,439.125 Q484.1875,439.6563 483.8906,440.6094 Q483.5938,441.5625 483.5938,442.8281 Q483.5938,444.8438 484.3125,445.8125 Q485.0313,446.7656 486.625,446.7656 Q487.2188,446.7656 487.8438,446.6094 Q488.4688,446.4531 489.2969,446.0781 L489.2969,448.2969 Q488.5625,448.6094 487.7656,448.7656 Q486.9844,448.9219 486.2188,448.9219 Z " fill="#000000"/><text fill="#000000" font-family="sans-serif" font-size="14" font-weight="bold" lengthAdjust="spacing" textLength="31" x="507.25" y="447.432">long</text><line style="stroke:#181818;stroke-width:0.5;" x1="410" x2="603" y1="458" y2="458"/><text fill="#000000" font-family="sans-serif" font-size="14" lengthAdjust="spacing" textLength="183" x="415" y="476.9659">min: -922117036854775808</text><text fill="#000000" font-family="sans-serif" font-size="14" lengthAdjust="spacing" textLength="180" x="415" y="496.0339">max: 922117036854775807</text><line style="stroke:#181818;stroke-width:0.5;" x1="410" x2="603" y1="504.1358" y2="504.1358"/></g><!--MD5=[88bac4ff5fe62a91c69761ad8a0b8dde]
class real--><g id="elem_real"><rect codeLine="39" fill="#F1F1F1" height="48" id="real" rx="2.5" ry="2.5" style="stroke:#181818;stroke-width:0.5;" width="59" x="693" y="318"/><ellipse cx="708" cy="334" fill="#A9DCDF" rx="11" ry="11" style="stroke:#181818;stroke-width:1.0;"/><path d="M703.1719,339.75 L706.5156,327.5625 L709.6563,327.5625 L713.0313,339.75 L710.5625,339.75 L709.8281,336.7344 L706.3125,336.7344 L705.5625,339.75 L703.1719,339.75 Z M707.5781,331.7031 L706.8281,334.7031 L709.3438,334.7031 L708.625,331.7031 Q708.4844,331.125 708.3594,330.5781 Q708.2344,330.0156 708.0938,329.4375 Q707.9844,330.0156 707.8438,330.5781 Q707.7031,331.125 707.5781,331.7031 Z " fill="#000000"/><text fill="#000000" font-family="sans-serif" font-size="14" font-style="italic" lengthAdjust="spacing" textLength="27" x="722" y="339.432">Real</text><line style="stroke:#181818;stroke-width:0.5;" x1="694" x2="751" y1="350" y2="350"/><line style="stroke:#181818;stroke-width:0.5;" x1="694" x2="751" y1="358" y2="358"/></g><!--MD5=[1dc3ec6278a64218093b4da673da3836]
class float--><g id="elem_float"><rect codeLine="43" fill="#F1F1F1" height="86.1358" id="float" rx="2.5" ry="2.5" style="stroke:#181818;stroke-width:0.5;" width="167" x="639" y="426"/><ellipse cx="702.25" cy="442" fill="#ADD1B2" rx="11" ry="11" style="stroke:#181818;stroke-width:1.0;"/><path d="M701.7188,448.9219 Q699.9688,448.9219 698.8281,448.1875 Q697.7031,447.4375 697.1406,446.0938 Q696.5938,444.7344 696.5938,442.9375 Q696.5938,440.9063 697.25,439.4531 Q697.9063,438 699.1875,437.2188 Q700.4688,436.4375 702.3438,436.4375 Q703.2344,436.4375 703.9063,436.625 Q704.5781,436.7969 705.2656,437.1406 L704.4531,439.1563 Q703.8281,438.8438 703.2813,438.7188 Q702.75,438.5938 702.2656,438.5938 Q701.0938,438.5938 700.3906,439.125 Q699.6875,439.6563 699.3906,440.6094 Q699.0938,441.5625 699.0938,442.8281 Q699.0938,444.8438 699.8125,445.8125 Q700.5313,446.7656 702.125,446.7656 Q702.7188,446.7656 703.3438,446.6094 Q703.9688,446.4531 704.7969,446.0781 L704.7969,448.2969 Q704.0625,448.6094 703.2656,448.7656 Q702.4844,448.9219 701.7188,448.9219 Z " fill="#000000"/><text fill="#000000" font-family="sans-serif" font-size="14" font-weight="bold" lengthAdjust="spacing" textLength="32" x="722.75" y="447.432">float</text><line style="stroke:#181818;stroke-width:0.5;" x1="640" x2="805" y1="458" y2="458"/><text fill="#000000" font-family="sans-serif" font-size="14" lengthAdjust="spacing" textLength="155" x="645" y="476.9659">min: +-3.40282347e+38</text><text fill="#000000" font-family="sans-serif" font-size="14" lengthAdjust="spacing" textLength="154" x="645" y="496.0339">max: +-1.40239846e-45</text><line style="stroke:#181818;stroke-width:0.5;" x1="640" x2="805" y1="504.1358" y2="504.1358"/></g><!--MD5=[d7e3b6fbd08c3d81e1f5a1c381a1c646]
class double--><g id="elem_double"><rect codeLine="49" fill="#F1F1F1" height="86.1358" id="double" rx="2.5" ry="2.5" style="stroke:#181818;stroke-width:0.5;" width="247" x="841" y="426"/><ellipse cx="936.25" cy="442" fill="#ADD1B2" rx="11" ry="11" style="stroke:#181818;stroke-width:1.0;"/><path d="M935.7188,448.9219 Q933.9688,448.9219 932.8281,448.1875 Q931.7031,447.4375 931.1406,446.0938 Q930.5938,444.7344 930.5938,442.9375 Q930.5938,440.9063 931.25,439.4531 Q931.9063,438 933.1875,437.2188 Q934.4688,436.4375 936.3438,436.4375 Q937.2344,436.4375 937.9063,436.625 Q938.5781,436.7969 939.2656,437.1406 L938.4531,439.1563 Q937.8281,438.8438 937.2813,438.7188 Q936.75,438.5938 936.2656,438.5938 Q935.0938,438.5938 934.3906,439.125 Q933.6875,439.6563 933.3906,440.6094 Q933.0938,441.5625 933.0938,442.8281 Q933.0938,444.8438 933.8125,445.8125 Q934.5313,446.7656 936.125,446.7656 Q936.7188,446.7656 937.3438,446.6094 Q937.9688,446.4531 938.7969,446.0781 L938.7969,448.2969 Q938.0625,448.6094 937.2656,448.7656 Q936.4844,448.9219 935.7188,448.9219 Z " fill="#000000"/><text fill="#000000" font-family="sans-serif" font-size="14" font-weight="bold" lengthAdjust="spacing" textLength="48" x="956.75" y="447.432">double</text><line style="stroke:#181818;stroke-width:0.5;" x1="842" x2="1087" y1="458" y2="458"/><text fill="#000000" font-family="sans-serif" font-size="14" lengthAdjust="spacing" textLength="235" x="847" y="476.9659">min: +-1.79769313486231570e+308</text><text fill="#000000" font-family="sans-serif" font-size="14" lengthAdjust="spacing" textLength="234" x="847" y="496.0339">max: +-4.94065645841246544e-324</text><line style="stroke:#181818;stroke-width:0.5;" x1="842" x2="1087" y1="504.1358" y2="504.1358"/></g><!--MD5=[78198a67d9ec72e99a102831e565784d]
class char--><g id="elem_char"><rect codeLine="56" fill="#F1F1F1" height="105.2038" id="char" rx="2.5" ry="2.5" style="stroke:#181818;stroke-width:0.5;" width="250" x="718.5" y="134"/><ellipse cx="824.25" cy="150" fill="#ADD1B2" rx="11" ry="11" style="stroke:#181818;stroke-width:1.0;"/><path d="M823.7188,156.9219 Q821.9688,156.9219 820.8281,156.1875 Q819.7031,155.4375 819.1406,154.0938 Q818.5938,152.7344 818.5938,150.9375 Q818.5938,148.9063 819.25,147.4531 Q819.9063,146 821.1875,145.2188 Q822.4688,144.4375 824.3438,144.4375 Q825.2344,144.4375 825.9063,144.625 Q826.5781,144.7969 827.2656,145.1406 L826.4531,147.1563 Q825.8281,146.8438 825.2813,146.7188 Q824.75,146.5938 824.2656,146.5938 Q823.0938,146.5938 822.3906,147.125 Q821.6875,147.6563 821.3906,148.6094 Q821.0938,149.5625 821.0938,150.8281 Q821.0938,152.8438 821.8125,153.8125 Q822.5313,154.7656 824.125,154.7656 Q824.7188,154.7656 825.3438,154.6094 Q825.9688,154.4531 826.7969,154.0781 L826.7969,156.2969 Q826.0625,156.6094 825.2656,156.7656 Q824.4844,156.9219 823.7188,156.9219 Z " fill="#000000"/><text fill="#000000" font-family="sans-serif" font-size="14" font-weight="bold" lengthAdjust="spacing" textLength="30" x="844.75" y="155.432">char</text><line style="stroke:#181818;stroke-width:0.5;" x1="719.5" x2="967.5" y1="166" y2="166"/><text fill="#000000" font-family="sans-serif" font-size="14" lengthAdjust="spacing" textLength="80" x="724.5" y="184.9659">min: /u0000</text><text fill="#000000" font-family="sans-serif" font-size="14" lengthAdjust="spacing" textLength="78" x="724.5" y="204.0339">max: /uFFFF</text><text fill="#000000" font-family="sans-serif" font-size="14" lengthAdjust="spacing" textLength="238" x="724.5" y="223.1018">operador binario: ==, !=, &gt;, &gt;=, &lt;, &lt;=</text><line style="stroke:#181818;stroke-width:0.5;" x1="719.5" x2="967.5" y1="231.2038" y2="231.2038"/></g><!--MD5=[f467dac3a2b1807548e3a1c37bb79668]
class string--><g id="elem_string"><rect codeLine="62" fill="#F1F1F1" height="105.2038" id="string" rx="2.5" ry="2.5" style="stroke:#181818;stroke-width:0.5;" width="209" x="1004" y="134"/><ellipse cx="1083.25" cy="150" fill="#ADD1B2" rx="11" ry="11" style="stroke:#181818;stroke-width:1.0;"/><path d="M1082.7188,156.9219 Q1080.9688,156.9219 1079.8281,156.1875 Q1078.7031,155.4375 1078.1406,154.0938 Q1077.5938,152.7344 1077.5938,150.9375 Q1077.5938,148.9063 1078.25,147.4531 Q1078.9063,146 1080.1875,145.2188 Q1081.4688,144.4375 1083.3438,144.4375 Q1084.2344,144.4375 1084.9063,144.625 Q1085.5781,144.7969 1086.2656,145.1406 L1085.4531,147.1563 Q1084.8281,146.8438 1084.2813,146.7188 Q1083.75,146.5938 1083.2656,146.5938 Q1082.0938,146.5938 1081.3906,147.125 Q1080.6875,147.6563 1080.3906,148.6094 Q1080.0938,149.5625 1080.0938,150.8281 Q1080.0938,152.8438 1080.8125,153.8125 Q1081.5313,154.7656 1083.125,154.7656 Q1083.7188,154.7656 1084.3438,154.6094 Q1084.9688,154.4531 1085.7969,154.0781 L1085.7969,156.2969 Q1085.0625,156.6094 1084.2656,156.7656 Q1083.4844,156.9219 1082.7188,156.9219 Z " fill="#000000"/><text fill="#000000" font-family="sans-serif" font-size="14" font-weight="bold" lengthAdjust="spacing" textLength="42" x="1103.75" y="155.432">String</text><line style="stroke:#181818;stroke-width:0.5;" x1="1005" x2="1212" y1="166" y2="166"/><text fill="#000000" font-family="sans-serif" font-size="14" lengthAdjust="spacing" textLength="197" x="1010" y="184.9659">valor: "cadena de caracteres"</text><text fill="#000000" font-family="sans-serif" font-size="14" lengthAdjust="spacing" textLength="130" x="1010" y="204.0339">operador binario: +</text><text fill="#000000" font-family="sans-serif" font-size="14" lengthAdjust="spacing" textLength="12" x="1010" y="223.1018">...</text><line style="stroke:#181818;stroke-width:0.5;" x1="1005" x2="1212" y1="231.2038" y2="231.2038"/></g><!--MD5=[191450097321f5f21de893bb2af0bbeb]
class boolean--><g id="elem_boolean"><rect codeLine="68" fill="#F1F1F1" height="124.2717" id="boolean" rx="2.5" ry="2.5" style="stroke:#181818;stroke-width:0.5;" width="222" x="1248.5" y="124.5"/><ellipse cx="1327.25" cy="140.5" fill="#ADD1B2" rx="11" ry="11" style="stroke:#181818;stroke-width:1.0;"/><path d="M1326.7188,147.4219 Q1324.9688,147.4219 1323.8281,146.6875 Q1322.7031,145.9375 1322.1406,144.5938 Q1321.5938,143.2344 1321.5938,141.4375 Q1321.5938,139.4063 1322.25,137.9531 Q1322.9063,136.5 1324.1875,135.7188 Q1325.4688,134.9375 1327.3438,134.9375 Q1328.2344,134.9375 1328.9063,135.125 Q1329.5781,135.2969 1330.2656,135.6406 L1329.4531,137.6563 Q1328.8281,137.3438 1328.2813,137.2188 Q1327.75,137.0938 1327.2656,137.0938 Q1326.0938,137.0938 1325.3906,137.625 Q1324.6875,138.1563 1324.3906,139.1094 Q1324.0938,140.0625 1324.0938,141.3281 Q1324.0938,143.3438 1324.8125,144.3125 Q1325.5313,145.2656 1327.125,145.2656 Q1327.7188,145.2656 1328.3438,145.1094 Q1328.9688,144.9531 1329.7969,144.5781 L1329.7969,146.7969 Q1329.0625,147.1094 1328.2656,147.2656 Q1327.4844,147.4219 1326.7188,147.4219 Z " fill="#000000"/><text fill="#000000" font-family="sans-serif" font-size="14" font-weight="bold" lengthAdjust="spacing" textLength="56" x="1347.75" y="145.932">boolean</text><line style="stroke:#181818;stroke-width:0.5;" x1="1249.5" x2="1469.5" y1="156.5" y2="156.5"/><text fill="#000000" font-family="sans-serif" font-size="14" lengthAdjust="spacing" textLength="69" x="1254.5" y="175.4659">valor: true</text><text fill="#000000" font-family="sans-serif" font-size="14" lengthAdjust="spacing" textLength="73" x="1254.5" y="194.5339">valor: false</text><text fill="#000000" font-family="sans-serif" font-size="14" lengthAdjust="spacing" textLength="122" x="1254.5" y="213.6018">operador unario: !</text><text fill="#000000" font-family="sans-serif" font-size="14" lengthAdjust="spacing" textLength="210" x="1254.5" y="232.6697">operador binario: &amp;&amp;, ||, ==, !=</text><line style="stroke:#181818;stroke-width:0.5;" x1="1249.5" x2="1469.5" y1="240.7717" y2="240.7717"/></g><!--MD5=[1d9528728c8a5255c6016ae435721451]
reverse link number to entero--><g id="link_number_entero"><path codeLine="13" d="M403.8,270.33 C380.17,287.85 357.12,304.94 339.61,317.93 " fill="none" id="number-backto-entero" style="stroke:#181818;stroke-width:1.0;"/><polygon fill="none" points="399.94,264.47,420.18,258.18,408.28,275.72,399.94,264.47" style="stroke:#181818;stroke-width:1.0;"/></g><!--MD5=[284f03f051c2d3946a2d6512c8c35ed3]
reverse link entero to byte--><g id="link_entero_byte"><path codeLine="19" d="M252.51,360.54 C209.3,375.18 148.77,398.11 99.5,426 C93.64,429.31 87.72,433.19 82.04,437.22 " fill="none" id="entero-backto-byte" style="stroke:#181818;stroke-width:1.0;"/><polygon fill="none" points="250.44,353.86,271.62,354.23,254.83,367.15,250.44,353.86" style="stroke:#181818;stroke-width:1.0;"/></g><!--MD5=[5cc297de6f89e39781950ee9b2749f92]
reverse link entero to short--><g id="link_entero_short"><path codeLine="25" d="M266.04,379.35 C247.87,394.91 226.63,413.1 208.12,428.94 " fill="none" id="entero-backto-short" style="stroke:#181818;stroke-width:1.0;"/><polygon fill="none" points="261.64,373.91,281.38,366.22,270.74,384.54,261.64,373.91" style="stroke:#181818;stroke-width:1.0;"/></g><!--MD5=[64a37885d5328b4188f0fad067e5c57c]
reverse link entero to int--><g id="link_entero_int"><path codeLine="31" d="M308.5,386.27 C308.5,399.12 308.5,413.17 308.5,425.94 " fill="none" id="entero-backto-int" style="stroke:#181818;stroke-width:1.0;"/><polygon fill="none" points="301.5,386.22,308.5,366.22,315.5,386.22,301.5,386.22" style="stroke:#181818;stroke-width:1.0;"/></g><!--MD5=[3b206852586f8a5c50d38cb77df9187d]
reverse link entero to long--><g id="link_entero_long"><path codeLine="37" d="M362.19,376.9 C386.14,392.01 414.59,409.97 439.87,425.94 " fill="none" id="entero-backto-long" style="stroke:#181818;stroke-width:1.0;"/><polygon fill="none" points="358.45,382.81,345.28,366.22,365.93,370.98,358.45,382.81" style="stroke:#181818;stroke-width:1.0;"/></g><!--MD5=[5d3abd34104c1f2639c959656353d788]
reverse link number to real--><g id="link_number_real"><path codeLine="41" d="M627.21,270.34 C651.47,288.33 675.12,305.87 692.79,318.97 " fill="none" id="number-backto-real" style="stroke:#181818;stroke-width:1.0;"/><polygon fill="none" points="622.72,275.72,610.82,258.18,631.06,264.47,622.72,275.72" style="stroke:#181818;stroke-width:1.0;"/></g><!--MD5=[9df8b3416017b79d3afbc1039fe77fac]
reverse link real to float--><g id="link_real_float"><path codeLine="47" d="M722.5,386.27 C722.5,399.12 722.5,413.17 722.5,425.94 " fill="none" id="real-backto-float" style="stroke:#181818;stroke-width:1.0;"/><polygon fill="none" points="715.5,386.22,722.5,366.22,729.5,386.22,715.5,386.22" style="stroke:#181818;stroke-width:1.0;"/></g><!--MD5=[ee33c001263522c7cbe67468fcf0f454]
reverse link real to double--><g id="link_real_double"><path codeLine="53" d="M770.15,367.61 C802.31,384.22 845.56,406.56 883.1,425.95 " fill="none" id="real-backto-double" style="stroke:#181818;stroke-width:1.0;"/><polygon fill="none" points="766.73,373.73,752.17,358.33,773.16,361.29,766.73,373.73" style="stroke:#181818;stroke-width:1.0;"/></g><!--MD5=[a037a84ca7c9c16dd477683c14a838f7]
reverse link Tipo to string--><g id="link_Tipo_string"><path codeLine="75" d="M1008.93,70.59 C1025.56,89.78 1045.89,113.24 1063.83,133.95 " fill="none" id="Tipo-backto-string" style="stroke:#181818;stroke-width:1.0;"/><polygon fill="none" points="1003.51,75.01,995.7,55.31,1014.09,65.84,1003.51,75.01" style="stroke:#181818;stroke-width:1.0;"/></g><!--MD5=[2a40d2eee460284f283bb96b67efff96]
reverse link Tipo to char--><g id="link_Tipo_char"><path codeLine="76" d="M942.32,70.59 C925.81,89.78 905.64,113.24 887.83,133.95 " fill="none" id="Tipo-backto-char" style="stroke:#181818;stroke-width:1.0;"/><polygon fill="none" points="937.1,65.91,955.45,55.31,947.72,75.04,937.1,65.91" style="stroke:#181818;stroke-width:1.0;"/></g><!--MD5=[092c5222ce9bb3df5d0d66b8278967f4]
reverse link Tipo to number--><g id="link_Tipo_number"><path codeLine="77" d="M926.13,45.86 C871.02,61.58 779.35,88.49 701.5,115 C695.45,117.06 689.31,119.19 683.11,121.37 " fill="none" id="Tipo-backto-number" style="stroke:#181818;stroke-width:1.0;"/><polygon fill="none" points="924.54,39.03,945.69,40.31,928.36,52.5,924.54,39.03" style="stroke:#181818;stroke-width:1.0;"/></g><!--MD5=[c76168f676eab26af09c7ba2d3b4c7d6]
reverse link Tipo to boolean--><g id="link_Tipo_boolean"><path codeLine="78" d="M1024.81,45.11 C1076.91,59.63 1161,85 1230.5,115 C1237.3,117.93 1244.21,121.11 1251.12,124.43 " fill="none" id="Tipo-backto-boolean" style="stroke:#181818;stroke-width:1.0;"/><polygon fill="none" points="1022.65,51.77,1005.22,39.74,1026.35,38.27,1022.65,51.77" style="stroke:#181818;stroke-width:1.0;"/></g><!--MD5=[32e22a67d2d5cea1a4afcb62d63fae6a]
@startuml
abstract class Tipo 

abstract class "<i>Numérico</i>" as number  {
valor decimal: 666, -1, 0.42, 
valor octal: 024
valor hexadecimal: 0x42
operador unarios: +, -
operador binarios: +, -, *, /, %, ==, !=, >, >=, <, <=
}

abstract class "<i>Entero</i>" as entero  {
}
number <|-down- entero

class "<b>byte</b>" as byte {
min: -128
max: 127
}
entero <|-down- byte

class "<b>short</b>" as short {
min: -32768
max: 32767
}
entero <|-down- short

class "<b>int</b>" as int {
min: -2147483648
max: 2147483647
}
entero <|-down- int

class "<b>long</b>" as long {
min: -922117036854775808
max: 922117036854775807
}
entero <|-down- long

abstract class "<i>Real</i>" as real  {
}
number <|-down- real

class "<b>float</b>" as float  {
min: +-3.40282347e+38
max: +-1.40239846e-45
}
real <|-down- float

class "<b>double</b>" as double  {
min: +-1.79769313486231570e+308
max: +-4.94065645841246544e-324
}
real <|-down- double


class "<b>char</b>" as char  {
min: /u0000
max: /uFFFF
operador binario: ==, !=, >, >=, <, <=
}

class "<b>String</b>" as string  {
valor: "cadena de caracteres"
operador binario: +
...
}

class "<b>boolean</b>" as boolean  {
valor: true
valor: false
operador unario: !
operador binario: &&, ||, ==, !=
}

Tipo <|-down- string
Tipo <|-down- char
Tipo <|-down- number
Tipo <|-down- boolean
@enduml

PlantUML version 1.2022.7(Mon Aug 22 19:01:30 CEST 2022)
(GPL source distribution)
Java Runtime: OpenJDK Runtime Environment
JVM: OpenJDK 64-Bit Server VM
Default Encoding: UTF-8
Language: es
Country: ES
--></g></svg>