<?xml version="1.0" encoding="UTF-8" standalone="no"?><svg xmlns="http://www.w3.org/2000/svg" xmlns:xlink="http://www.w3.org/1999/xlink" contentStyleType="text/css" height="602px" preserveAspectRatio="none" style="width:456px;height:602px;background:#FFFFFF;" version="1.1" viewBox="0 0 456 602" width="456px" zoomAndPan="magnify"><defs/><g><!--MD5=[6b27d1a0dea81bf2665f7b16d0566833]
class ProyectoSoftware--><g id="elem_ProyectoSoftware"><rect codeLine="1" fill="#F1F1F1" height="48" id="ProyectoSoftware" rx="2.5" ry="2.5" style="stroke:#181818;stroke-width:0.5;" width="147" x="154.5" y="7"/><ellipse cx="169.5" cy="23" fill="#ADD1B2" rx="11" ry="11" style="stroke:#181818;stroke-width:1.0;"/><path d="M172.2656,18.875 Q172.4219,18.6563 172.6094,18.5469 Q172.7969,18.4375 173.0156,18.4375 Q173.3906,18.4375 173.625,18.7031 Q173.8594,18.9531 173.8594,19.5625 L173.8594,21.0156 Q173.8594,21.625 173.625,21.8906 Q173.3906,22.1563 173.0156,22.1563 Q172.6719,22.1563 172.4688,21.9531 Q172.2656,21.7656 172.1563,21.25 Q172.1094,20.8906 171.9219,20.7031 Q171.5938,20.3281 170.9844,20.1094 Q170.375,19.8906 169.75,19.8906 Q168.9844,19.8906 168.3438,20.2188 Q167.7188,20.5469 167.2188,21.2969 Q166.7344,22.0469 166.7344,23.0781 L166.7344,24.1719 Q166.7344,25.4063 167.625,26.2344 Q168.5156,27.0469 170.1094,27.0469 Q171.0469,27.0469 171.7031,26.7969 Q172.0938,26.6406 172.5156,26.2031 Q172.7813,25.9375 172.9219,25.8594 Q173.0781,25.7813 173.2813,25.7813 Q173.6094,25.7813 173.8594,26.0469 Q174.125,26.2969 174.125,26.6406 Q174.125,26.9844 173.7813,27.3906 Q173.2813,27.9688 172.4844,28.2969 Q171.4063,28.75 170.1094,28.75 Q168.5938,28.75 167.3906,28.125 Q166.4063,27.625 165.7188,26.5625 Q165.0313,25.4844 165.0313,24.2031 L165.0313,23.0469 Q165.0313,21.7188 165.6406,20.5781 Q166.2656,19.4219 167.3594,18.8125 Q168.4531,18.1875 169.6875,18.1875 Q170.4219,18.1875 171.0625,18.3594 Q171.7188,18.5156 172.2656,18.875 Z " fill="#000000"/><text fill="#000000" font-family="sans-serif" font-size="14" lengthAdjust="spacing" textLength="115" x="183.5" y="28.7285">Proyecto Software</text><line style="stroke:#181818;stroke-width:0.5;" x1="155.5" x2="300.5" y1="39" y2="39"/><line style="stroke:#181818;stroke-width:0.5;" x1="155.5" x2="300.5" y1="47" y2="47"/></g><!--MD5=[c1b1585e244f28b905e3d48bf4b47977]
class ProductoSoftware--><g id="elem_ProductoSoftware"><rect codeLine="6" fill="#F1F1F1" height="48" id="ProductoSoftware" rx="2.5" ry="2.5" style="stroke:#181818;stroke-width:0.5;" width="144" x="7" y="115"/><ellipse cx="22" cy="131" fill="#ADD1B2" rx="11" ry="11" style="stroke:#181818;stroke-width:1.0;"/><path d="M24.7656,126.875 Q24.9219,126.6563 25.1094,126.5469 Q25.2969,126.4375 25.5156,126.4375 Q25.8906,126.4375 26.125,126.7031 Q26.3594,126.9531 26.3594,127.5625 L26.3594,129.0156 Q26.3594,129.625 26.125,129.8906 Q25.8906,130.1563 25.5156,130.1563 Q25.1719,130.1563 24.9688,129.9531 Q24.7656,129.7656 24.6563,129.25 Q24.6094,128.8906 24.4219,128.7031 Q24.0938,128.3281 23.4844,128.1094 Q22.875,127.8906 22.25,127.8906 Q21.4844,127.8906 20.8438,128.2188 Q20.2188,128.5469 19.7188,129.2969 Q19.2344,130.0469 19.2344,131.0781 L19.2344,132.1719 Q19.2344,133.4063 20.125,134.2344 Q21.0156,135.0469 22.6094,135.0469 Q23.5469,135.0469 24.2031,134.7969 Q24.5938,134.6406 25.0156,134.2031 Q25.2813,133.9375 25.4219,133.8594 Q25.5781,133.7813 25.7813,133.7813 Q26.1094,133.7813 26.3594,134.0469 Q26.625,134.2969 26.625,134.6406 Q26.625,134.9844 26.2813,135.3906 Q25.7813,135.9688 24.9844,136.2969 Q23.9063,136.75 22.6094,136.75 Q21.0938,136.75 19.8906,136.125 Q18.9063,135.625 18.2188,134.5625 Q17.5313,133.4844 17.5313,132.2031 L17.5313,131.0469 Q17.5313,129.7188 18.1406,128.5781 Q18.7656,127.4219 19.8594,126.8125 Q20.9531,126.1875 22.1875,126.1875 Q22.9219,126.1875 23.5625,126.3594 Q24.2188,126.5156 24.7656,126.875 Z " fill="#000000"/><text fill="#000000" font-family="sans-serif" font-size="14" lengthAdjust="spacing" textLength="112" x="36" y="136.7285">ProductoSoftware</text><line style="stroke:#181818;stroke-width:0.5;" x1="8" x2="150" y1="147" y2="147"/><line style="stroke:#181818;stroke-width:0.5;" x1="8" x2="150" y1="155" y2="155"/></g><!--MD5=[1e667c6ad6db7468aaf1f24fbbf1ec5d]
class Variable--><g id="elem_Variable"><rect codeLine="24" fill="#F1F1F1" height="48" id="Variable" rx="2.5" ry="2.5" style="stroke:#181818;stroke-width:0.5;" width="84" x="231" y="223"/><ellipse cx="246" cy="239" fill="#ADD1B2" rx="11" ry="11" style="stroke:#181818;stroke-width:1.0;"/><path d="M248.7656,234.875 Q248.9219,234.6563 249.1094,234.5469 Q249.2969,234.4375 249.5156,234.4375 Q249.8906,234.4375 250.125,234.7031 Q250.3594,234.9531 250.3594,235.5625 L250.3594,237.0156 Q250.3594,237.625 250.125,237.8906 Q249.8906,238.1563 249.5156,238.1563 Q249.1719,238.1563 248.9688,237.9531 Q248.7656,237.7656 248.6563,237.25 Q248.6094,236.8906 248.4219,236.7031 Q248.0938,236.3281 247.4844,236.1094 Q246.875,235.8906 246.25,235.8906 Q245.4844,235.8906 244.8438,236.2188 Q244.2188,236.5469 243.7188,237.2969 Q243.2344,238.0469 243.2344,239.0781 L243.2344,240.1719 Q243.2344,241.4063 244.125,242.2344 Q245.0156,243.0469 246.6094,243.0469 Q247.5469,243.0469 248.2031,242.7969 Q248.5938,242.6406 249.0156,242.2031 Q249.2813,241.9375 249.4219,241.8594 Q249.5781,241.7813 249.7813,241.7813 Q250.1094,241.7813 250.3594,242.0469 Q250.625,242.2969 250.625,242.6406 Q250.625,242.9844 250.2813,243.3906 Q249.7813,243.9688 248.9844,244.2969 Q247.9063,244.75 246.6094,244.75 Q245.0938,244.75 243.8906,244.125 Q242.9063,243.625 242.2188,242.5625 Q241.5313,241.4844 241.5313,240.2031 L241.5313,239.0469 Q241.5313,237.7188 242.1406,236.5781 Q242.7656,235.4219 243.8594,234.8125 Q244.9531,234.1875 246.1875,234.1875 Q246.9219,234.1875 247.5625,234.3594 Q248.2188,234.5156 248.7656,234.875 Z " fill="#000000"/><text fill="#000000" font-family="sans-serif" font-size="14" lengthAdjust="spacing" textLength="52" x="260" y="244.7285">Variable</text><line style="stroke:#181818;stroke-width:0.5;" x1="232" x2="314" y1="255" y2="255"/><line style="stroke:#181818;stroke-width:0.5;" x1="232" x2="314" y1="263" y2="263"/></g><!--MD5=[ae470cfee48f598be90862634dfca4ef]
class Efectividad--><g id="elem_Efectividad"><rect codeLine="14" fill="#F1F1F1" height="48" id="Efectividad" rx="2.5" ry="2.5" style="stroke:#181818;stroke-width:0.5;" width="101" x="281.5" y="115"/><ellipse cx="296.5" cy="131" fill="#ADD1B2" rx="11" ry="11" style="stroke:#181818;stroke-width:1.0;"/><path d="M299.2656,126.875 Q299.4219,126.6563 299.6094,126.5469 Q299.7969,126.4375 300.0156,126.4375 Q300.3906,126.4375 300.625,126.7031 Q300.8594,126.9531 300.8594,127.5625 L300.8594,129.0156 Q300.8594,129.625 300.625,129.8906 Q300.3906,130.1563 300.0156,130.1563 Q299.6719,130.1563 299.4688,129.9531 Q299.2656,129.7656 299.1563,129.25 Q299.1094,128.8906 298.9219,128.7031 Q298.5938,128.3281 297.9844,128.1094 Q297.375,127.8906 296.75,127.8906 Q295.9844,127.8906 295.3438,128.2188 Q294.7188,128.5469 294.2188,129.2969 Q293.7344,130.0469 293.7344,131.0781 L293.7344,132.1719 Q293.7344,133.4063 294.625,134.2344 Q295.5156,135.0469 297.1094,135.0469 Q298.0469,135.0469 298.7031,134.7969 Q299.0938,134.6406 299.5156,134.2031 Q299.7813,133.9375 299.9219,133.8594 Q300.0781,133.7813 300.2813,133.7813 Q300.6094,133.7813 300.8594,134.0469 Q301.125,134.2969 301.125,134.6406 Q301.125,134.9844 300.7813,135.3906 Q300.2813,135.9688 299.4844,136.2969 Q298.4063,136.75 297.1094,136.75 Q295.5938,136.75 294.3906,136.125 Q293.4063,135.625 292.7188,134.5625 Q292.0313,133.4844 292.0313,132.2031 L292.0313,131.0469 Q292.0313,129.7188 292.6406,128.5781 Q293.2656,127.4219 294.3594,126.8125 Q295.4531,126.1875 296.6875,126.1875 Q297.4219,126.1875 298.0625,126.3594 Q298.7188,126.5156 299.2656,126.875 Z " fill="#000000"/><text fill="#000000" font-family="sans-serif" font-size="14" lengthAdjust="spacing" textLength="69" x="310.5" y="136.7285">Efectividad</text><line style="stroke:#181818;stroke-width:0.5;" x1="282.5" x2="381.5" y1="147" y2="147"/><line style="stroke:#181818;stroke-width:0.5;" x1="282.5" x2="381.5" y1="155" y2="155"/></g><!--MD5=[ba8d4e04ac4b1d578316f7dfee59ef54]
class Calidad--><g id="elem_Calidad"><rect codeLine="9" fill="#F1F1F1" height="48" id="Calidad" rx="2.5" ry="2.5" style="stroke:#181818;stroke-width:0.5;" width="80" x="193" y="439"/><ellipse cx="208" cy="455" fill="#ADD1B2" rx="11" ry="11" style="stroke:#181818;stroke-width:1.0;"/><path d="M210.7656,450.875 Q210.9219,450.6563 211.1094,450.5469 Q211.2969,450.4375 211.5156,450.4375 Q211.8906,450.4375 212.125,450.7031 Q212.3594,450.9531 212.3594,451.5625 L212.3594,453.0156 Q212.3594,453.625 212.125,453.8906 Q211.8906,454.1563 211.5156,454.1563 Q211.1719,454.1563 210.9688,453.9531 Q210.7656,453.7656 210.6563,453.25 Q210.6094,452.8906 210.4219,452.7031 Q210.0938,452.3281 209.4844,452.1094 Q208.875,451.8906 208.25,451.8906 Q207.4844,451.8906 206.8438,452.2188 Q206.2188,452.5469 205.7188,453.2969 Q205.2344,454.0469 205.2344,455.0781 L205.2344,456.1719 Q205.2344,457.4063 206.125,458.2344 Q207.0156,459.0469 208.6094,459.0469 Q209.5469,459.0469 210.2031,458.7969 Q210.5938,458.6406 211.0156,458.2031 Q211.2813,457.9375 211.4219,457.8594 Q211.5781,457.7813 211.7813,457.7813 Q212.1094,457.7813 212.3594,458.0469 Q212.625,458.2969 212.625,458.6406 Q212.625,458.9844 212.2813,459.3906 Q211.7813,459.9688 210.9844,460.2969 Q209.9063,460.75 208.6094,460.75 Q207.0938,460.75 205.8906,460.125 Q204.9063,459.625 204.2188,458.5625 Q203.5313,457.4844 203.5313,456.2031 L203.5313,455.0469 Q203.5313,453.7188 204.1406,452.5781 Q204.7656,451.4219 205.8594,450.8125 Q206.9531,450.1875 208.1875,450.1875 Q208.9219,450.1875 209.5625,450.3594 Q210.2188,450.5156 210.7656,450.875 Z " fill="#000000"/><text fill="#000000" font-family="sans-serif" font-size="14" lengthAdjust="spacing" textLength="48" x="222" y="460.7285">Calidad</text><line style="stroke:#181818;stroke-width:0.5;" x1="194" x2="272" y1="471" y2="471"/><line style="stroke:#181818;stroke-width:0.5;" x1="194" x2="272" y1="479" y2="479"/></g><!--MD5=[e03b13406aaacfe8f671045b631845e1]
class Mantenibilidad--><g id="elem_Mantenibilidad"><rect codeLine="12" fill="#F1F1F1" height="48" id="Mantenibilidad" rx="2.5" ry="2.5" style="stroke:#181818;stroke-width:0.5;" width="123" x="171.5" y="547"/><ellipse cx="186.5" cy="563" fill="#ADD1B2" rx="11" ry="11" style="stroke:#181818;stroke-width:1.0;"/><path d="M189.2656,558.875 Q189.4219,558.6563 189.6094,558.5469 Q189.7969,558.4375 190.0156,558.4375 Q190.3906,558.4375 190.625,558.7031 Q190.8594,558.9531 190.8594,559.5625 L190.8594,561.0156 Q190.8594,561.625 190.625,561.8906 Q190.3906,562.1563 190.0156,562.1563 Q189.6719,562.1563 189.4688,561.9531 Q189.2656,561.7656 189.1563,561.25 Q189.1094,560.8906 188.9219,560.7031 Q188.5938,560.3281 187.9844,560.1094 Q187.375,559.8906 186.75,559.8906 Q185.9844,559.8906 185.3438,560.2188 Q184.7188,560.5469 184.2188,561.2969 Q183.7344,562.0469 183.7344,563.0781 L183.7344,564.1719 Q183.7344,565.4063 184.625,566.2344 Q185.5156,567.0469 187.1094,567.0469 Q188.0469,567.0469 188.7031,566.7969 Q189.0938,566.6406 189.5156,566.2031 Q189.7813,565.9375 189.9219,565.8594 Q190.0781,565.7813 190.2813,565.7813 Q190.6094,565.7813 190.8594,566.0469 Q191.125,566.2969 191.125,566.6406 Q191.125,566.9844 190.7813,567.3906 Q190.2813,567.9688 189.4844,568.2969 Q188.4063,568.75 187.1094,568.75 Q185.5938,568.75 184.3906,568.125 Q183.4063,567.625 182.7188,566.5625 Q182.0313,565.4844 182.0313,564.2031 L182.0313,563.0469 Q182.0313,561.7188 182.6406,560.5781 Q183.2656,559.4219 184.3594,558.8125 Q185.4531,558.1875 186.6875,558.1875 Q187.4219,558.1875 188.0625,558.3594 Q188.7188,558.5156 189.2656,558.875 Z " fill="#000000"/><text fill="#000000" font-family="sans-serif" font-size="14" lengthAdjust="spacing" textLength="91" x="200.5" y="568.7285">Mantenibilidad</text><line style="stroke:#181818;stroke-width:0.5;" x1="172.5" x2="293.5" y1="579" y2="579"/><line style="stroke:#181818;stroke-width:0.5;" x1="172.5" x2="293.5" y1="587" y2="587"/></g><!--MD5=[898eb3bdc47a30381ffde2d865cee115]
class Eficacia--><g id="elem_Eficacia"><rect codeLine="15" fill="#F1F1F1" height="48" id="Eficacia" rx="2.5" ry="2.5" style="stroke:#181818;stroke-width:0.5;" width="81" x="360.5" y="223"/><ellipse cx="375.5" cy="239" fill="#ADD1B2" rx="11" ry="11" style="stroke:#181818;stroke-width:1.0;"/><path d="M378.2656,234.875 Q378.4219,234.6563 378.6094,234.5469 Q378.7969,234.4375 379.0156,234.4375 Q379.3906,234.4375 379.625,234.7031 Q379.8594,234.9531 379.8594,235.5625 L379.8594,237.0156 Q379.8594,237.625 379.625,237.8906 Q379.3906,238.1563 379.0156,238.1563 Q378.6719,238.1563 378.4688,237.9531 Q378.2656,237.7656 378.1563,237.25 Q378.1094,236.8906 377.9219,236.7031 Q377.5938,236.3281 376.9844,236.1094 Q376.375,235.8906 375.75,235.8906 Q374.9844,235.8906 374.3438,236.2188 Q373.7188,236.5469 373.2188,237.2969 Q372.7344,238.0469 372.7344,239.0781 L372.7344,240.1719 Q372.7344,241.4063 373.625,242.2344 Q374.5156,243.0469 376.1094,243.0469 Q377.0469,243.0469 377.7031,242.7969 Q378.0938,242.6406 378.5156,242.2031 Q378.7813,241.9375 378.9219,241.8594 Q379.0781,241.7813 379.2813,241.7813 Q379.6094,241.7813 379.8594,242.0469 Q380.125,242.2969 380.125,242.6406 Q380.125,242.9844 379.7813,243.3906 Q379.2813,243.9688 378.4844,244.2969 Q377.4063,244.75 376.1094,244.75 Q374.5938,244.75 373.3906,244.125 Q372.4063,243.625 371.7188,242.5625 Q371.0313,241.4844 371.0313,240.2031 L371.0313,239.0469 Q371.0313,237.7188 371.6406,236.5781 Q372.2656,235.4219 373.3594,234.8125 Q374.4531,234.1875 375.6875,234.1875 Q376.4219,234.1875 377.0625,234.3594 Q377.7188,234.5156 378.2656,234.875 Z " fill="#000000"/><text fill="#000000" font-family="sans-serif" font-size="14" lengthAdjust="spacing" textLength="49" x="389.5" y="244.7285">Eficacia</text><line style="stroke:#181818;stroke-width:0.5;" x1="361.5" x2="440.5" y1="255" y2="255"/><line style="stroke:#181818;stroke-width:0.5;" x1="361.5" x2="440.5" y1="263" y2="263"/></g><!--MD5=[8e97db94623e3426c92a634a5459bdc0]
class Eficiencia--><g id="elem_Eficiencia"><rect codeLine="16" fill="#F1F1F1" height="48" id="Eficiencia" rx="2.5" ry="2.5" style="stroke:#181818;stroke-width:0.5;" width="92" x="104" y="223"/><ellipse cx="119" cy="239" fill="#ADD1B2" rx="11" ry="11" style="stroke:#181818;stroke-width:1.0;"/><path d="M121.7656,234.875 Q121.9219,234.6563 122.1094,234.5469 Q122.2969,234.4375 122.5156,234.4375 Q122.8906,234.4375 123.125,234.7031 Q123.3594,234.9531 123.3594,235.5625 L123.3594,237.0156 Q123.3594,237.625 123.125,237.8906 Q122.8906,238.1563 122.5156,238.1563 Q122.1719,238.1563 121.9688,237.9531 Q121.7656,237.7656 121.6563,237.25 Q121.6094,236.8906 121.4219,236.7031 Q121.0938,236.3281 120.4844,236.1094 Q119.875,235.8906 119.25,235.8906 Q118.4844,235.8906 117.8438,236.2188 Q117.2188,236.5469 116.7188,237.2969 Q116.2344,238.0469 116.2344,239.0781 L116.2344,240.1719 Q116.2344,241.4063 117.125,242.2344 Q118.0156,243.0469 119.6094,243.0469 Q120.5469,243.0469 121.2031,242.7969 Q121.5938,242.6406 122.0156,242.2031 Q122.2813,241.9375 122.4219,241.8594 Q122.5781,241.7813 122.7813,241.7813 Q123.1094,241.7813 123.3594,242.0469 Q123.625,242.2969 123.625,242.6406 Q123.625,242.9844 123.2813,243.3906 Q122.7813,243.9688 121.9844,244.2969 Q120.9063,244.75 119.6094,244.75 Q118.0938,244.75 116.8906,244.125 Q115.9063,243.625 115.2188,242.5625 Q114.5313,241.4844 114.5313,240.2031 L114.5313,239.0469 Q114.5313,237.7188 115.1406,236.5781 Q115.7656,235.4219 116.8594,234.8125 Q117.9531,234.1875 119.1875,234.1875 Q119.9219,234.1875 120.5625,234.3594 Q121.2188,234.5156 121.7656,234.875 Z " fill="#000000"/><text fill="#000000" font-family="sans-serif" font-size="14" lengthAdjust="spacing" textLength="60" x="133" y="244.7285">Eficiencia</text><line style="stroke:#181818;stroke-width:0.5;" x1="105" x2="195" y1="255" y2="255"/><line style="stroke:#181818;stroke-width:0.5;" x1="105" x2="195" y1="263" y2="263"/></g><!--MD5=[5dfac5a12e7097e3300ce030a8fd1c4a]
class Ambito--><g id="elem_Ambito"><rect codeLine="26" fill="#F1F1F1" height="48" id="Ambito" rx="2.5" ry="2.5" style="stroke:#181818;stroke-width:0.5;" width="75" x="374.5" y="331"/><ellipse cx="389.5" cy="347" fill="#ADD1B2" rx="11" ry="11" style="stroke:#181818;stroke-width:1.0;"/><path d="M392.2656,342.875 Q392.4219,342.6563 392.6094,342.5469 Q392.7969,342.4375 393.0156,342.4375 Q393.3906,342.4375 393.625,342.7031 Q393.8594,342.9531 393.8594,343.5625 L393.8594,345.0156 Q393.8594,345.625 393.625,345.8906 Q393.3906,346.1563 393.0156,346.1563 Q392.6719,346.1563 392.4688,345.9531 Q392.2656,345.7656 392.1563,345.25 Q392.1094,344.8906 391.9219,344.7031 Q391.5938,344.3281 390.9844,344.1094 Q390.375,343.8906 389.75,343.8906 Q388.9844,343.8906 388.3438,344.2188 Q387.7188,344.5469 387.2188,345.2969 Q386.7344,346.0469 386.7344,347.0781 L386.7344,348.1719 Q386.7344,349.4063 387.625,350.2344 Q388.5156,351.0469 390.1094,351.0469 Q391.0469,351.0469 391.7031,350.7969 Q392.0938,350.6406 392.5156,350.2031 Q392.7813,349.9375 392.9219,349.8594 Q393.0781,349.7813 393.2813,349.7813 Q393.6094,349.7813 393.8594,350.0469 Q394.125,350.2969 394.125,350.6406 Q394.125,350.9844 393.7813,351.3906 Q393.2813,351.9688 392.4844,352.2969 Q391.4063,352.75 390.1094,352.75 Q388.5938,352.75 387.3906,352.125 Q386.4063,351.625 385.7188,350.5625 Q385.0313,349.4844 385.0313,348.2031 L385.0313,347.0469 Q385.0313,345.7188 385.6406,344.5781 Q386.2656,343.4219 387.3594,342.8125 Q388.4531,342.1875 389.6875,342.1875 Q390.4219,342.1875 391.0625,342.3594 Q391.7188,342.5156 392.2656,342.875 Z " fill="#000000"/><text fill="#000000" font-family="sans-serif" font-size="14" lengthAdjust="spacing" textLength="43" x="403.5" y="352.7285">Ambito</text><line style="stroke:#181818;stroke-width:0.5;" x1="375.5" x2="448.5" y1="363" y2="363"/><line style="stroke:#181818;stroke-width:0.5;" x1="375.5" x2="448.5" y1="371" y2="371"/></g><!--MD5=[176484ce2eeaca736d80002f59920b2e]
class Tiempo--><g id="elem_Tiempo"><rect codeLine="25" fill="#F1F1F1" height="48" id="Tiempo" rx="2.5" ry="2.5" style="stroke:#181818;stroke-width:0.5;" width="79" x="84.5" y="331"/><ellipse cx="99.5" cy="347" fill="#ADD1B2" rx="11" ry="11" style="stroke:#181818;stroke-width:1.0;"/><path d="M102.2656,342.875 Q102.4219,342.6563 102.6094,342.5469 Q102.7969,342.4375 103.0156,342.4375 Q103.3906,342.4375 103.625,342.7031 Q103.8594,342.9531 103.8594,343.5625 L103.8594,345.0156 Q103.8594,345.625 103.625,345.8906 Q103.3906,346.1563 103.0156,346.1563 Q102.6719,346.1563 102.4688,345.9531 Q102.2656,345.7656 102.1563,345.25 Q102.1094,344.8906 101.9219,344.7031 Q101.5938,344.3281 100.9844,344.1094 Q100.375,343.8906 99.75,343.8906 Q98.9844,343.8906 98.3438,344.2188 Q97.7188,344.5469 97.2188,345.2969 Q96.7344,346.0469 96.7344,347.0781 L96.7344,348.1719 Q96.7344,349.4063 97.625,350.2344 Q98.5156,351.0469 100.1094,351.0469 Q101.0469,351.0469 101.7031,350.7969 Q102.0938,350.6406 102.5156,350.2031 Q102.7813,349.9375 102.9219,349.8594 Q103.0781,349.7813 103.2813,349.7813 Q103.6094,349.7813 103.8594,350.0469 Q104.125,350.2969 104.125,350.6406 Q104.125,350.9844 103.7813,351.3906 Q103.2813,351.9688 102.4844,352.2969 Q101.4063,352.75 100.1094,352.75 Q98.5938,352.75 97.3906,352.125 Q96.4063,351.625 95.7188,350.5625 Q95.0313,349.4844 95.0313,348.2031 L95.0313,347.0469 Q95.0313,345.7188 95.6406,344.5781 Q96.2656,343.4219 97.3594,342.8125 Q98.4531,342.1875 99.6875,342.1875 Q100.4219,342.1875 101.0625,342.3594 Q101.7188,342.5156 102.2656,342.875 Z " fill="#000000"/><text fill="#000000" font-family="sans-serif" font-size="14" lengthAdjust="spacing" textLength="47" x="113.5" y="352.7285">Tiempo</text><line style="stroke:#181818;stroke-width:0.5;" x1="85.5" x2="162.5" y1="363" y2="363"/><line style="stroke:#181818;stroke-width:0.5;" x1="85.5" x2="162.5" y1="371" y2="371"/></g><!--MD5=[40f9cec64e42766ea5122d27d853606d]
class Coste--><g id="elem_Coste"><rect codeLine="27" fill="#F1F1F1" height="48" id="Coste" rx="2.5" ry="2.5" style="stroke:#181818;stroke-width:0.5;" width="69" x="198.5" y="331"/><ellipse cx="213.5" cy="347" fill="#ADD1B2" rx="11" ry="11" style="stroke:#181818;stroke-width:1.0;"/><path d="M216.2656,342.875 Q216.4219,342.6563 216.6094,342.5469 Q216.7969,342.4375 217.0156,342.4375 Q217.3906,342.4375 217.625,342.7031 Q217.8594,342.9531 217.8594,343.5625 L217.8594,345.0156 Q217.8594,345.625 217.625,345.8906 Q217.3906,346.1563 217.0156,346.1563 Q216.6719,346.1563 216.4688,345.9531 Q216.2656,345.7656 216.1563,345.25 Q216.1094,344.8906 215.9219,344.7031 Q215.5938,344.3281 214.9844,344.1094 Q214.375,343.8906 213.75,343.8906 Q212.9844,343.8906 212.3438,344.2188 Q211.7188,344.5469 211.2188,345.2969 Q210.7344,346.0469 210.7344,347.0781 L210.7344,348.1719 Q210.7344,349.4063 211.625,350.2344 Q212.5156,351.0469 214.1094,351.0469 Q215.0469,351.0469 215.7031,350.7969 Q216.0938,350.6406 216.5156,350.2031 Q216.7813,349.9375 216.9219,349.8594 Q217.0781,349.7813 217.2813,349.7813 Q217.6094,349.7813 217.8594,350.0469 Q218.125,350.2969 218.125,350.6406 Q218.125,350.9844 217.7813,351.3906 Q217.2813,351.9688 216.4844,352.2969 Q215.4063,352.75 214.1094,352.75 Q212.5938,352.75 211.3906,352.125 Q210.4063,351.625 209.7188,350.5625 Q209.0313,349.4844 209.0313,348.2031 L209.0313,347.0469 Q209.0313,345.7188 209.6406,344.5781 Q210.2656,343.4219 211.3594,342.8125 Q212.4531,342.1875 213.6875,342.1875 Q214.4219,342.1875 215.0625,342.3594 Q215.7188,342.5156 216.2656,342.875 Z " fill="#000000"/><text fill="#000000" font-family="sans-serif" font-size="14" lengthAdjust="spacing" textLength="37" x="227.5" y="352.7285">Coste</text><line style="stroke:#181818;stroke-width:0.5;" x1="199.5" x2="266.5" y1="363" y2="363"/><line style="stroke:#181818;stroke-width:0.5;" x1="199.5" x2="266.5" y1="371" y2="371"/></g><!--MD5=[e8486211b621b83e082f05694f892003]
link ProyectoSoftware to ProductoSoftware--><g id="link_ProyectoSoftware_ProductoSoftware"><path codeLine="2" d="M185.891,61.9549 C185.891,61.9549 142.06,93.14 122.36,107.15 " fill="none" id="ProyectoSoftware-ProductoSoftware" style="stroke:#181818;stroke-width:1.0;"/><polygon fill="#181818" points="111.52,114.86,121.1708,112.8949,115.592,111.9585,116.5284,106.3797,111.52,114.86" style="stroke:#181818;stroke-width:1.0;"/><line style="stroke:#181818;stroke-width:1.0;" x1="115.592" x2="122.12" y1="111.9585" y2="107.325"/><polygon fill="#181818" points="195.67,55,188.4622,55.2178,185.891,61.9549,193.0988,61.7371,195.67,55" style="stroke:#181818;stroke-width:1.0;"/></g><!--MD5=[32810697a85b9b9052282b18345e8e9b]
link ProyectoSoftware to Variable--><g id="link_ProyectoSoftware_Variable"><path codeLine="3" d="M235.3774,67.0515 C235.3774,67.0515 257.1,170.41 265.39,209.82 " fill="none" id="ProyectoSoftware-Variable" style="stroke:#181818;stroke-width:1.0;"/><polygon fill="#181818" points="268.1,222.72,270.1639,213.0898,267.0719,217.8268,262.3349,214.7348,268.1,222.72" style="stroke:#181818;stroke-width:1.0;"/><line style="stroke:#181818;stroke-width:1.0;" x1="267.0719" x2="265.43" y1="217.8268" y2="209.995"/><polygon fill="#181818" points="232.9,55.31,230.2249,62.0066,235.3774,67.0515,238.0525,60.3549,232.9,55.31" style="stroke:#181818;stroke-width:1.0;"/></g><!--MD5=[be5b80921201697eeb004c8acdb0a5c6]
link ProyectoSoftware to Efectividad--><g id="link_ProyectoSoftware_Efectividad"><path codeLine="4" d="M258.9759,63.564 C258.9759,63.564 287.18,92.32 299.85,105.23 " fill="none" id="ProyectoSoftware-Efectividad" style="stroke:#181818;stroke-width:1.0;"/><polygon fill="#181818" points="309.12,114.68,305.6632,105.4577,305.6148,111.1144,299.9582,111.066,309.12,114.68" style="stroke:#181818;stroke-width:1.0;"/><line style="stroke:#181818;stroke-width:1.0;" x1="305.6148" x2="300.015" y1="111.1144" y2="105.4"/><polygon fill="#181818" points="250.57,55,251.9183,62.0839,258.9759,63.564,257.6276,56.48,250.57,55" style="stroke:#181818;stroke-width:1.0;"/></g><!--MD5=[8c0de7cf38103272de9addc94169af42]
link ProductoSoftware to Calidad--><g id="link_ProductoSoftware_Calidad"><path codeLine="7" d="M65.8569,174.5441 C65.8569,174.5441 28.19,316.2 67,379 C91.5,418.65 141.31,439.99 180.01,451.05 " fill="none" id="ProductoSoftware-Calidad" style="stroke:#181818;stroke-width:1.0;"/><polygon fill="#181818" points="192.65,454.42,184.9819,448.2394,187.8183,453.1337,182.9239,455.9701,192.65,454.42" style="stroke:#181818;stroke-width:1.0;"/><line style="stroke:#181818;stroke-width:1.0;" x1="187.8183" x2="180.09" y1="453.1337" y2="451.075"/><polygon fill="#181818" points="69.77,163.2,64.0321,167.5677,65.8569,174.5441,71.5948,170.1764,69.77,163.2" style="stroke:#181818;stroke-width:1.0;"/></g><!--MD5=[8d3f9b3185ceb1b0e1c0dce27cc5beef]
link Calidad to Mantenibilidad--><g id="link_Calidad_Mantenibilidad"><path codeLine="10" d="M233,499 C233,499 233,522.68 233,533.36 " fill="none" id="Calidad-Mantenibilidad" style="stroke:#181818;stroke-width:1.0;"/><polygon fill="#181818" points="233,546.68,237,537.68,233,541.68,229,537.68,233,546.68" style="stroke:#181818;stroke-width:1.0;"/><line style="stroke:#181818;stroke-width:1.0;" x1="233" x2="233" y1="541.68" y2="533.68"/><polygon fill="#181818" points="233,487,229,493,233,499,237,493,233,487" style="stroke:#181818;stroke-width:1.0;"/></g><!--MD5=[63fcd433ba5a5b3b3665520f89c2cd5f]
link Efectividad to Eficacia--><g id="link_Efectividad_Eficacia"><path codeLine="17" d="M353.5196,173.055 C353.5196,173.055 370.79,199.59 378.65,211.66 " fill="none" id="Efectividad-Eficacia" style="stroke:#181818;stroke-width:1.0;"/><polygon fill="#181818" points="385.82,222.68,384.2595,212.9556,383.091,218.4904,377.5561,217.3219,385.82,222.68" style="stroke:#181818;stroke-width:1.0;"/><line style="stroke:#181818;stroke-width:1.0;" x1="383.091" x2="378.725" y1="218.4904" y2="211.785"/><polygon fill="#181818" points="346.97,163,346.8931,170.2107,353.5196,173.055,353.5965,165.8443,346.97,163" style="stroke:#181818;stroke-width:1.0;"/></g><!--MD5=[d61449beb2889ce97380a3361b37bfb6]
link Efectividad to Eficiencia--><g id="link_Efectividad_Eficiencia"><path codeLine="18" d="M282.1418,169.0415 C282.1418,169.0415 226.13,201.66 201.17,216.2 " fill="none" id="Efectividad-Eficiencia" style="stroke:#181818;stroke-width:1.0;"/><polygon fill="#181818" points="189.73,222.86,199.52,221.7849,194.0501,220.3427,195.4923,214.8728,189.73,222.86" style="stroke:#181818;stroke-width:1.0;"/><line style="stroke:#181818;stroke-width:1.0;" x1="194.0501" x2="200.96" y1="220.3427" y2="216.32"/><polygon fill="#181818" points="292.51,163,285.312,162.5647,282.1418,169.0415,289.3397,169.4768,292.51,163" style="stroke:#181818;stroke-width:1.0;"/></g><!--MD5=[ba90f72541344a81c4f00fdbe4e45563]
link Eficacia to Ambito--><g id="link_Eficacia_Ambito"><path codeLine="20" d="M403.39,271 C405.05,287 407.27,308.45 409.05,325.53 " fill="none" id="Eficacia-to-Ambito" style="stroke:#181818;stroke-width:1.0;"/><polygon fill="#181818" points="409.58,330.68,412.606,321.3075,409.0514,325.708,404.6509,322.1533,409.58,330.68" style="stroke:#181818;stroke-width:1.0;"/></g><!--MD5=[468d0fab92601dd1c0121c9e12bebe56]
link Eficiencia to Tiempo--><g id="link_Eficiencia_Tiempo"><path codeLine="21" d="M144.36,271 C140.43,287 135.17,308.45 130.98,325.53 " fill="none" id="Eficiencia-to-Tiempo" style="stroke:#181818;stroke-width:1.0;"/><polygon fill="#181818" points="129.72,330.68,135.7403,322.8854,130.9058,325.8226,127.9685,320.9881,129.72,330.68" style="stroke:#181818;stroke-width:1.0;"/></g><!--MD5=[05e78f6717c445abfb46d4c17d420c0b]
link Eficiencia to Coste--><g id="link_Eficiencia_Coste"><path codeLine="22" d="M168.01,271 C180.76,287.28 197.91,309.19 211.39,326.41 " fill="none" id="Eficiencia-to-Coste" style="stroke:#181818;stroke-width:1.0;"/><polygon fill="#181818" points="214.74,330.68,212.3264,321.1315,211.6515,326.7479,206.0351,326.073,214.74,330.68" style="stroke:#181818;stroke-width:1.0;"/></g><!--MD5=[9c7b15ac406f4154dc6a6d7a77d5169f]
reverse link Variable to Tiempo--><g id="link_Variable_Tiempo"><path codeLine="29" d="M224.16,282.75 C201.97,298.53 176.31,316.78 156.52,330.86 " fill="none" id="Variable-backto-Tiempo" style="stroke:#181818;stroke-width:1.0;"/><polygon fill="none" points="220.31,276.89,240.67,271,228.43,288.3,220.31,276.89" style="stroke:#181818;stroke-width:1.0;"/></g><!--MD5=[1f3dcb447baaaf972d812761af18ac71]
reverse link Variable to Ambito--><g id="link_Variable_Ambito"><path codeLine="30" d="M319.12,283.17 C339.6,298.79 363.16,316.75 381.42,330.68 " fill="none" id="Variable-backto-Ambito" style="stroke:#181818;stroke-width:1.0;"/><polygon fill="none" points="314.82,288.69,303.16,271,323.31,277.56,314.82,288.69" style="stroke:#181818;stroke-width:1.0;"/></g><!--MD5=[66fad3355ceabd409ccf262c98ba9ab1]
reverse link Variable to Coste--><g id="link_Variable_Coste"><path codeLine="31" d="M257.13,290.06 C251.91,303.89 246.3,318.76 241.8,330.68 " fill="none" id="Variable-backto-Coste" style="stroke:#181818;stroke-width:1.0;"/><polygon fill="none" points="250.71,287.24,264.32,271,263.81,292.18,250.71,287.24" style="stroke:#181818;stroke-width:1.0;"/></g><!--MD5=[939e349326edc73243e26ee9ce476170]
reverse link Variable to Calidad--><g id="link_Variable_Calidad"><path codeLine="32" d="M284.76,290.95 C289.95,316.89 293.23,350.36 285,379 C278.66,401.06 264.55,422.94 252.62,438.69 " fill="none" id="Variable-backto-Calidad" style="stroke:#181818;stroke-width:1.0;"/><polygon fill="none" points="277.88,292.27,280.16,271.2,291.52,289.09,277.88,292.27" style="stroke:#181818;stroke-width:1.0;"/></g><!--MD5=[68ebd65b31438d4212afcbd3bee375d3]
link Tiempo to Calidad--><g id="link_Tiempo_Calidad"><path codeLine="34" d="M147.65,379 C164.53,395.42 187.3,417.56 205.08,434.84 " fill="none" id="Tiempo-to-Calidad" style="stroke:#181818;stroke-width:1.0;"/><polygon fill="#181818" points="209.02,438.68,205.3548,429.5385,205.4348,435.1948,199.7785,435.2748,209.02,438.68" style="stroke:#181818;stroke-width:1.0;"/></g><!--MD5=[5338abf864151cbfa5c4cb64294e7f6e]
link Ambito to Calidad--><g id="link_Ambito_Calidad"><path codeLine="35" d="M374.48,378.22 C345.85,395.17 306.36,418.56 276.37,436.31 " fill="none" id="Ambito-to-Calidad" style="stroke:#181818;stroke-width:1.0;"/><polygon fill="#181818" points="272.02,438.89,281.8,437.7278,276.3175,436.3343,277.711,430.8518,272.02,438.89" style="stroke:#181818;stroke-width:1.0;"/></g><!--MD5=[45b366cc89dd9dead0c56e3e6f75a958]
link Coste to Calidad--><g id="link_Coste_Calidad"><path codeLine="36" d="M233,379 C233,395 233,416.45 233,433.53 " fill="none" id="Coste-to-Calidad" style="stroke:#181818;stroke-width:1.0;"/><polygon fill="#181818" points="233,438.68,237,429.68,233,433.68,229,429.68,233,438.68" style="stroke:#181818;stroke-width:1.0;"/></g><!--MD5=[ccf9f38b034a56e628302b7d52b84193]
@startuml
class "Proyecto Software" as ProyectoSoftware
ProyectoSoftware *-down-> ProductoSoftware
ProyectoSoftware *-down-> Variable
ProyectoSoftware *-down-> Efectividad

class "Producto Software" as ProductoSoftware
ProductoSoftware *-down-> Calidad

class Calidad
Calidad *-down-> Mantenibilidad

class Mantenibilidad

class Efectividad
class Eficacia
class Eficiencia
Efectividad *-down-> Eficacia
Efectividad *-down-> Eficiencia

Eficacia -down-> Ambito
Eficiencia -down-> Tiempo
Eficiencia -down-> Coste

class Variable
class Tiempo
class "Ámbito" as Ambito
class Coste

Variable <|-down- Tiempo
Variable <|-down- Ambito
Variable <|-down- Coste
Variable <|-down- Calidad

Tiempo -down-> Calidad
Ambito -down-> Calidad
Coste -down-> Calidad
@enduml

PlantUML version 1.2022.7(Mon Aug 22 19:01:30 CEST 2022)
(GPL source distribution)
Java Runtime: Java(TM) SE Runtime Environment
JVM: Java HotSpot(TM) 64-Bit Server VM
Default Encoding: UTF-8
Language: es
Country: ES
--></g></svg>